<?xml version="1.0"?>
<!--Icons from directory ""-->
<svg xmlns="http://www.w3.org/2000/svg" width="38" height="156" viewBox="0 0 38 156"><svg xmlns:xlink="http://www.w3.org/1999/xlink" id="attach" xml:space="preserve" height="15" viewBox="0 0 19 14.64" width="19" version="1.1" y="0" x="0px" enable-background="new 0 0 19 14.64"><path d="m13.593 13.589h-1.669c0.011-0.09 0.027-0.178 0.027-0.27v-1.367h1.642c1.808 0 3.271-1.465 3.271-3.271s-1.464-3.271-3.271-3.271c-0.503 0-0.977 0.117-1.401 0.322l-0.663-0.662c-0.759-1.725-2.474-2.932-4.479-2.932-2.711 0-4.908 2.196-4.908 4.906 0 2.709 2.193 4.904 4.901 4.908v1.367c0 0.093 0.017 0.18 0.026 0.27h-0.021c-3.615 0-6.544-2.93-6.544-6.545 0-3.613 2.929-6.543 6.544-6.543 2.456 0 4.592 1.355 5.712 3.355 0.271-0.047 0.546-0.084 0.831-0.084 2.71 0 4.907 2.197 4.907 4.908 0.003 2.711-2.194 4.909-4.905 4.909zm-6.987-4.19c-0.32-0.318-0.32-0.837 0-1.155l2.313-2.314c0.319-0.319 0.838-0.319 1.156 0l2.313 2.314c0.32 0.318 0.32 0.837 0 1.155-0.319 0.319-0.838 0.319-1.156 0l-0.917-0.917v4.838c0 0.451-0.366 0.818-0.818 0.818-0.451 0-0.817-0.367-0.817-0.818v-4.838l-0.917 0.917c-0.321 0.319-0.837 0.319-1.157 0z" fill="#fff"/></svg><svg xmlns:xlink="http://www.w3.org/1999/xlink" id="document" xml:space="preserve" height="39" viewBox="0 0 30.03 38.69" width="30" version="1.1" y="15" x="0px" enable-background="new 0 0 30.03 38.69"><path d="m18.951 0.501h-18.451v37.688h29.031v-26.705l-10.58-10.983zm0.496 4.917l4.98 5.173h-4.98v-5.173zm-15.893 29.718v-31.578h13.601v9.324h9.321v22.255l-22.922-0.001z"/></svg><svg xmlns:xlink="http://www.w3.org/1999/xlink" id="dollar" xml:space="preserve" height="18" viewBox="0 0 12.25 17.57" width="12" version="1.1" y="54" x="0px" enable-background="new 0 0 12.25 17.57">		<path d="m6.944 7.323c-0.058-0.012-0.103-0.025-0.159-0.037v-2.012c0.93 0.15 1.913 0.558 2.83 1.202l1.786-2.523c-1.249-1.003-2.75-1.576-4.616-1.689v-1.766h-0.899v1.749c-2.967 0.079-4.781 1.78-4.781 4.118v0.038c0 2.624 2.078 3.408 4.781 4.032v2.118c-1.205-0.153-2.353-0.657-3.398-1.49l-1.989 2.375c1.432 1.281 3.347 1.985 5.388 2.11v1.523h0.899v-1.506c2.992-0.079 4.967-1.627 4.967-4.19v-0.037c-0.001-2.411-1.843-3.37-4.809-4.015zm-2.228-1.252v-0.037c0-0.437 0.388-0.788 1.17-0.821v1.84c-0.909-0.277-1.17-0.533-1.17-0.982zm3.427 5.655c0 0.528-0.478 0.851-1.357 0.879v-1.938c1.061 0.309 1.357 0.585 1.357 1.021v0.038z" fill="#fff"/></svg><svg xmlns:xlink="http://www.w3.org/1999/xlink" id="edit" xml:space="preserve" height="14" viewBox="0 0 14.14 14.05" width="14" version="1.1" y="72" x="0px" enable-background="new 0 0 14.14 14.05"><g fill="#333">	<path d="m11.177 0.688c-0.552-0.184-1.055-0.155-1.359 0.118-0.023 0.02-0.046 0.038-0.068 0.06l-8.066 8.065c-0.108 0.108-0.182 0.233-0.22 0.357l1.092 0.02 8.621-8.62z"/>	<path d="m12.534 1.52c-0.169-0.157-0.346-0.295-0.523-0.415l-8.776 8.776-0.028 1.063 1.805-0.001-0.016 1.662c0.072-0.041 0.143-0.091 0.207-0.155l8.066-8.066c0.035-0.035 0.065-0.072 0.094-0.11 0.015-0.014 0.032-0.026 0.047-0.042 0.523-0.566 0.131-1.779-0.876-2.712z"/>	<path d="m1.003 11.236l-0.504 2.316 2.282-0.455c-0.357-1.447-1.778-1.861-1.778-1.861z"/></g></svg><svg xmlns:xlink="http://www.w3.org/1999/xlink" id="follow" xml:space="preserve" height="14" viewBox="0 0 23.87 13.65" width="24" version="1.1" y="86" x="0px" enable-background="new 0 0 23.87 13.65"><g fill="#333">	<path d="m0.37 6.825l0.13 0.196c2.533 3.839 6.783 6.131 11.368 6.131 4.586 0 8.837-2.292 11.371-6.129l0.13-0.198-0.13-0.199c-2.536-3.837-6.787-6.128-11.371-6.128-4.585 0-8.835 2.292-11.368 6.128l-0.13 0.199zm13.845 4.956c0.546-0.265 1.052-0.619 1.496-1.061 1.045-1.043 1.621-2.433 1.621-3.91 0-1.476-0.576-2.864-1.621-3.909-0.418-0.417-0.894-0.757-1.407-1.017 3.07 0.61 5.81 2.351 7.678 4.939-1.887 2.615-4.661 4.365-7.767 4.958zm-4.817-2.545c-0.645-0.646-1-1.502-1-2.414s0.355-1.768 1-2.414c0.646-0.644 1.503-0.999 2.414-0.999 0.912 0 1.77 0.354 2.414 0.999 0.643 0.646 0.998 1.502 0.998 2.414 0 1.881-1.53 3.413-3.412 3.413-0.911 0-1.768-0.356-2.414-0.999zm-7.641-2.411c1.826-2.532 4.485-4.257 7.474-4.902-1.754 0.926-2.957 2.768-2.957 4.888 0 1.477 0.577 2.866 1.62 3.91 0.42 0.419 0.894 0.759 1.41 1.02-3.02-0.635-5.706-2.365-7.547-4.916z"/>	<path d="m12.996 7.014c0.623 0 1.127-0.504 1.127-1.127s-0.504-1.128-1.127-1.128-1.128 0.505-1.128 1.128 0.505 1.127 1.128 1.127"/></g></svg><svg xmlns:xlink="http://www.w3.org/1999/xlink" id="github" xml:space="preserve" height="29" viewBox="0 0 37.87 29.49" width="38" version="1.1" y="100" x="0px" enable-background="new 0 0 37.87 29.49">	<path d="m7.213 20.214c-0.643 0-0.003-1.008 0-1.461 0.01 0.465 0.641 1.461 0 1.461z" fill="#BFBFBF"/>	<g id="github-XMLID_1_">			<path d="m23.025 8.927c3.21 0 4.026 2.271 4.026 4.025 0 2.39-1.203 4.124-4.197 4.571-0.368 0.055-0.762 0.091-1.185 0.106-1.808 0.066-3.614 0.059-5.103 0-0.216-0.008-0.428-0.021-0.636-0.04-3.125-0.272-5.343-1.685-5.343-4.85 0-1.198 0.811-3.813 4.079-3.813 0.325 0 2.438 0.199 4.479 0.199 1.813 0.001 3.645-0.198 3.88-0.198z" fill="#CFCFCF"/>			<path d="m23.324 26.247c0.013 0.971 1.435 1.434 1.382 1.749-0.053 0.31-1.19 0.26-1.721 0.076-1.505-0.525-1.354-1.779-1.354-1.779l-0.051-3.437s0.103-1.85-0.581-1.85v5.625c0 1.225 0.857 1.596 0.857 2.046 0 0.778-1.563-0.072-2.046-0.558-0.734-0.736-0.651-2.3-0.633-3.536 0.018-1.197-0.011-3.809-0.011-3.809l-0.499 0.009s0.204 5.708-0.262 6.748c-0.605 1.334-2.429 1.794-2.429 1.186 0-0.408 0.449-0.277 0.698-1.196 0.212-0.777 0.14-6.597 0.14-6.597s-0.584 0.345-0.584 1.435c0 0.498-0.013 3.349-0.013 4.195 0 1.066-1.516 1.674-2.244 1.674-0.368 0-0.827-0.018-0.827-0.215 0-0.493 1.385-0.782 1.385-1.807 0-0.89-0.019-3.179-0.019-3.179s-0.699 0.12-1.695 0.12c-2.51 0-3.305-1.604-3.683-2.5-0.492-1.169-1.129-1.716-1.808-2.155-0.416-0.27-0.512-0.586-0.03-0.678 2.223-0.418 2.792 2.521 4.276 2.989 1.059 0.336 2.424 0.19 3.1-0.248 0.089-0.897 0.738-1.675 1.276-2.084-0.034-0.003-0.069-0.006-0.103-0.01l0.088-0.873c0.208 0.019 0.42 0.032 0.636 0.04 1.488 0.059 3.295 0.067 5.103 0 0.422-0.015 0.817-0.051 1.185-0.106l0.113 0.791c-0.373 0.056-0.761 0.104-1.166 0.146 1.203 0.756 1.548 1.707 1.548 4.278s-0.036 2.918-0.028 3.51z"/>			<path d="m8.268 13.545c-0.364-1.07-0.525-2.295-0.525-3.663 0-2.429 0.758-3.348 1.774-4.644-0.777-2.77 0.279-4.661 0.279-4.661s1.634-0.341 4.724 1.874c1.674-0.72 6.139-0.78 8.252-0.162 1.295-0.856 3.667-2.073 4.625-1.731 0.258 0.417 0.816 1.633 0.338 4.304 0.325 0.586 2.014 1.834 2.021 5.363-0.028 1.3-0.164 2.399-0.414 3.326 4.028-0.033 6.397 0.3 8.029 0.6 0.065 0.013 0.108 0.076 0.096 0.14-0.009 0.057-0.061 0.098-0.117 0.098h-0.021c-1.631-0.304-4.003-0.636-8.056-0.597-0.071 0.234-0.15 0.46-0.237 0.673 1.379 0.046 5.167 0.194 8.255 1.14 0.065 0.018 0.099 0.083 0.08 0.15-0.015 0.048-0.063 0.083-0.113 0.083-0.013 0-0.025-0.002-0.036-0.007-3.131-0.956-7-1.088-8.288-1.129-0.999 2.191-2.93 3.16-5.965 3.615l-0.113-0.791c2.994-0.448 4.197-2.181 4.197-4.571 0-1.755-0.815-4.025-4.026-4.025-0.235 0-2.067 0.199-3.88 0.199-2.042 0-4.154-0.199-4.479-0.199-3.268 0-4.079 2.614-4.079 3.813 0 3.165 2.219 4.577 5.343 4.85l-0.088 0.873c-3.713-0.376-5.922-1.682-7.072-3.771-3.95 0.096-6.191 0.656-7.835 1.067-0.12 0.03-0.235 0.058-0.349 0.086-0.009 0.002-0.019 0.005-0.029 0.005-0.054 0-0.103-0.037-0.116-0.091-0.017-0.065 0.023-0.131 0.088-0.146 0.113-0.028 0.228-0.057 0.348-0.087 1.639-0.41 3.866-0.966 7.769-1.071-0.107-0.216-0.205-0.439-0.292-0.67-1.519-0.013-6.195 0.204-7.797 0.6-0.009 0.003-0.018 0.003-0.028 0.003-0.053 0-0.103-0.037-0.116-0.091-0.015-0.065 0.024-0.128 0.087-0.146 1.585-0.394 6.151-0.613 7.766-0.609z"/>	</g>	<path d="m16.089 12.933c0-1.405-0.765-2.544-1.708-2.544s-1.707 1.139-1.707 2.544 0.764 2.386 1.707 2.386 1.708-0.981 1.708-2.386z" fill="#fff"/>	<path d="m25.317 12.933c0-1.405-0.765-2.544-1.708-2.544s-1.708 1.139-1.708 2.544 0.765 2.386 1.708 2.386 1.708-0.981 1.708-2.386z" fill="#fff"/>		<path d="m18.873 16.846c-0.61 0-1.057-0.524-1.057-0.797 0-0.066 0.054-0.12 0.12-0.12s0.119 0.053 0.119 0.12c0 0.135 0.34 0.558 0.818 0.558 0.414 0 0.724-0.295 0.724-0.558 0-0.066 0.054-0.12 0.12-0.12s0.12 0.053 0.12 0.12c-0.002 0.377-0.397 0.797-0.964 0.797z" fill="#626262"/>	<g fill="#626262">	<circle cy="15.059" cx="18.859" r=".412"/>	<ellipse cy="12.933" cx="14.381" rx="1.123" ry="1.647"/>	<ellipse cy="12.933" cx="23.609" rx="1.123" ry="1.647"/></g><g fill="#DEDEDE">	<ellipse cy="18.118" cx="8.023" rx=".269" ry=".179"/>	<ellipse cy="18.573" cx="8.86" rx=".269" ry=".18"/>	<ellipse cy="19.182" cx="9.372" rx=".269" ry=".179"/>	<ellipse cy="19.869" cx="9.82" rx=".269" ry=".179"/>	<ellipse cy="20.517" cx="10.332" rx=".269" ry=".18"/>	<ellipse cy="21.068" cx="11.023" rx=".269" ry=".179"/>	<ellipse cy="21.427" cx="11.99" rx=".269" ry=".179"/>	<ellipse cy="21.427" cx="12.959" rx=".269" ry=".179"/>	<ellipse cy="21.274" cx="13.933" rx=".269" ry=".18"/></g></svg><svg xmlns:xlink="http://www.w3.org/1999/xlink" id="invite" xml:space="preserve" height="14" viewBox="0 0 16.81 13.54" width="17" version="1.1" y="129" x="0px" enable-background="new 0 0 16.81 13.54"><g fill="#333">	<path d="m4.892 4.466c0 0.409-0.332 0.741-0.741 0.741h-1.729c-0.409 0-0.742-0.333-0.742-0.741 0-0.409 0.333-0.741 0.742-0.741h1.729c0.41 0 0.741 0.332 0.741 0.741z"/>	<path d="m6.789 7.056c0 0.408-0.332 0.741-0.742 0.741h-1.729c-0.409 0-0.741-0.333-0.741-0.741 0-0.409 0.333-0.742 0.741-0.742h1.729c0.41 0 0.742 0.332 0.742 0.742z"/>	<path d="m8.566 9.645c0 0.408-0.332 0.741-0.742 0.741h-1.728c-0.409 0-0.742-0.333-0.742-0.741 0-0.409 0.333-0.742 0.742-0.742h1.729c0.409 0 0.741 0.333 0.741 0.742z"/>	<path d="m13.759 0.499h-10.769c-0.006 0-0.011-0.003-0.017-0.003h-1.729c-0.409 0-0.742 0.333-0.742 0.742 0 0.408 0.333 0.741 0.742 0.741h2.965l3.792 3.841c0.988 1.001 2.604 1.011 3.604 0.024l3.167-3.125c0.034 0.104 0.057 0.213 0.057 0.329v7.445c0 0.589-0.479 1.069-1.069 1.069h-4.479c-0.012-0.001-0.021-0.007-0.034-0.007h-1.729c-0.409 0-0.742 0.333-0.742 0.742 0 0.408 0.333 0.74 0.742 0.74h0.428v0.004h5.813c1.405 0 2.548-1.143 2.548-2.548v-7.446c0-1.405-1.143-2.548-2.548-2.548zm-3.193 4.292c-0.42 0.415-1.099 0.41-1.513-0.01l-2.766-2.803h7.129l-2.85 2.813z"/></g></svg><svg xmlns:xlink="http://www.w3.org/1999/xlink" id="tweet" xml:space="preserve" height="13" viewBox="0 0 9.58 12.92" width="10" version="1.1" y="143" x="0px" enable-background="new 0 0 9.58 12.92"><rect y="4.376" x="17.165" height="9.875" width="11.667" fill="none"/><g stroke="#333" stroke-miterlimit="10" fill="none">	<rect height="10.891" width="7.531" y="1.015" x="1.024"/>	<line y2="11.905" x2="8.556" y1="1.015" x1="1.024"/>	<line y2="11.905" x2="1.024" y1="1.015" x1="8.556"/></g></svg></svg>
