<?xml version="1.0" encoding="utf-8"?>
<!-- Generator: Adobe Illustrator 15.0.2, SVG Export Plug-In . SVG Version: 6.00 Build 0)  -->
<!DOCTYPE svg PUBLIC "-//W3C//DTD SVG 1.1//EN" "http://www.w3.org/Graphics/SVG/1.1/DTD/svg11.dtd">
<svg version="1.1" id="Capa_1" xmlns="http://www.w3.org/2000/svg" xmlns:xlink="http://www.w3.org/1999/xlink" x="0px" y="0px"
	 width="52px" height="37px" viewBox="0 0 52 37" enable-background="new 0 0 52 37" xml:space="preserve">
<polygon fill="#888989" points="49.016,4.5 51.375,6.86 49.859,8.375 47.5,6.015 45.141,8.375 43.625,6.86 45.984,4.5 43.625,2.141 
	45.141,0.626 47.5,2.985 49.859,0.625 51.375,2.14 "/>
<polygon points="49.016,15.75 51.375,18.11 49.859,19.625 47.5,17.265 45.141,19.625 43.625,18.11 45.984,15.75 43.625,13.391 
	45.141,11.876 47.5,14.235 49.859,11.875 51.375,13.39 "/>
<polygon fill="#888989" points="20.042,11.875 27.125,11.875 23.583,6.958 "/>
<polygon fill="#888989" points="9.042,6.958 1.958,6.958 5.5,11.875 "/>
<circle fill="none" stroke="#888888" stroke-width="1.5" stroke-miterlimit="10" cx="38.813" cy="29.438" r="3.625"/>
<line fill="none" stroke="#888888" stroke-width="2" stroke-linecap="round" stroke-miterlimit="10" x1="45.563" y1="36.25" x2="41.656" y2="32.344"/>
</svg>
