<?xml version="1.0" encoding="utf-8"?>
<!DOCTYPE svg PUBLIC "-//W3C//DTD SVG 1.1//EN" "http://www.w3.org/Graphics/SVG/1.1/DTD/svg11.dtd"><svg xmlns="http://www.w3.org/2000/svg" xmlns:xlink="http://www.w3.org/1999/xlink" viewBox="0 0 19 14.64" height="14.64px" xml:space="preserve" x="0px" y="0px" id="Capa_1" width="19px" version="1.1" enable-background="new 0 0 19 14.64">
  <path fill="#FFFFFF" d="M13.593,13.589c-0.339,0-0.95,0-1.669,0c0.011-0.09,0.027-0.178,0.027-0.27v-1.367c0.688,0,1.279,0,1.642,0  c1.808,0,3.271-1.465,3.271-3.271S15.4,5.41,13.593,5.41c-0.503,0-0.977,0.117-1.401,0.322L11.529,5.07  c-0.759-1.725-2.474-2.932-4.479-2.932c-2.711,0-4.908,2.196-4.908,4.906c0,2.709,2.193,4.904,4.901,4.908v1.367  c0,0.093,0.017,0.18,0.026,0.27c-0.007,0-0.015,0-0.021,0c-3.615,0-6.544-2.93-6.544-6.545c0-3.613,2.929-6.543,6.544-6.543  c2.456,0,4.592,1.355,5.712,3.355c0.271-0.047,0.546-0.084,0.831-0.084c2.71,0,4.907,2.197,4.907,4.908  C18.501,11.391,16.304,13.589,13.593,13.589z M6.606,9.399c-0.32-0.318-0.32-0.837,0-1.155l2.313-2.314  c0.319-0.319,0.838-0.319,1.156,0l2.313,2.314c0.32,0.318,0.32,0.837,0,1.155c-0.319,0.319-0.838,0.319-1.156,0l-0.917-0.917v4.838  c0,0.451-0.366,0.818-0.818,0.818c-0.451,0-0.817-0.367-0.817-0.818V8.482L7.763,9.399C7.442,9.718,6.926,9.718,6.606,9.399z" />
</svg>