<svg xmlns="http://www.w3.org/2000/svg" xmlns:xlink="http://www.w3.org/1999/xlink" id="attach-black-Capa_1" xml:space="preserve" height="23" viewBox="0 0 29.736 23.357" width="30" version="1.1" y="0px" x="0px" enable-background="new 0 0 29.736 23.357"><path d="m21.022 21.113h-2.512c0.017-0.135 0.042-0.268 0.042-0.406v-2.057h2.47c2.72 0 4.923-2.204 4.923-4.923 0-2.718-2.203-4.922-4.923-4.922-0.757 0-1.47 0.176-2.109 0.484l-0.996-0.996c-1.142-2.595-3.722-4.412-6.74-4.412-4.079 0-7.385 3.305-7.385 7.383 0 4.077 3.3 7.38 7.375 7.386v2.058c0 0.14 0.025 0.271 0.04 0.406h-0.031c-5.44 0-9.847-4.41-9.847-9.849 0-5.437 4.407-9.846 9.847-9.846 3.696 0 6.91 2.039 8.595 5.049 0.409-0.07 0.822-0.126 1.251-0.126 4.078 0 7.384 3.307 7.384 7.386 0.001 4.077-3.305 7.385-7.384 7.385m-10.513-6.306c-0.482-0.479-0.482-1.26 0-1.738l3.48-3.483c0.48-0.481 1.26-0.481 1.739 0l3.482 3.483c0.482 0.478 0.482 1.259 0 1.738-0.481 0.48-1.261 0.48-1.74 0l-1.38-1.38v7.28c0 0.679-0.551 1.231-1.231 1.231-0.679 0-1.23-0.553-1.23-1.231v-7.28l-1.38 1.38c-0.482 0.481-1.26 0.481-1.74 0" fill="#010202"/></svg>