<svg xmlns="http://www.w3.org/2000/svg" xmlns:xlink="http://www.w3.org/1999/xlink" id="attach-Capa_1" xml:space="preserve" height="15" viewBox="0 0 19 14.64" width="19" version="1.1" y="0px" x="0px" enable-background="new 0 0 19 14.64"><path d="m13.593 13.589h-1.669c0.011-0.09 0.027-0.178 0.027-0.27v-1.367h1.642c1.808 0 3.271-1.465 3.271-3.271s-1.464-3.271-3.271-3.271c-0.503 0-0.977 0.117-1.401 0.322l-0.663-0.662c-0.759-1.725-2.474-2.932-4.479-2.932-2.711 0-4.908 2.196-4.908 4.906 0 2.709 2.193 4.904 4.901 4.908v1.367c0 0.093 0.017 0.18 0.026 0.27h-0.021c-3.615 0-6.544-2.93-6.544-6.545 0-3.613 2.929-6.543 6.544-6.543 2.456 0 4.592 1.355 5.712 3.355 0.271-0.047 0.546-0.084 0.831-0.084 2.71 0 4.907 2.197 4.907 4.908 0.003 2.711-2.194 4.909-4.905 4.909zm-6.987-4.19c-0.32-0.318-0.32-0.837 0-1.155l2.313-2.314c0.319-0.319 0.838-0.319 1.156 0l2.313 2.314c0.32 0.318 0.32 0.837 0 1.155-0.319 0.319-0.838 0.319-1.156 0l-0.917-0.917v4.838c0 0.451-0.366 0.818-0.818 0.818-0.451 0-0.817-0.367-0.817-0.818v-4.838l-0.917 0.917c-0.321 0.319-0.837 0.319-1.157 0z" fill="#fff"/></svg>