<svg xmlns="http://www.w3.org/2000/svg" xmlns:xlink="http://www.w3.org/1999/xlink" id="chat-Capa_1" xml:space="preserve" height="20" viewBox="0 0 19.843 19.843" width="20" version="1.1" y="0px" x="0px" enable-background="new 0 0 19.843 19.843"><path d="m18.421 9.921c0 4.694-3.806 8.5-8.5 8.5s-8.5-3.806-8.5-8.5c0-4.694 3.806-8.5 8.5-8.5s8.5 3.807 8.5 8.5" fill="#7F8080"/><path d="m17.421 9.921c0 4.143-3.357 7.5-7.5 7.5s-7.5-3.357-7.5-7.5c0-4.143 3.357-7.5 7.5-7.5s7.5 3.358 7.5 7.5" fill="#343434"/><g fill="#7F8080"><rect y="5.921" x="12.421" height="8" width="1"/><rect y="4.921" x="8.421" height="10" width="1"/><rect y="4.921" x="10.421" height="10" width="1"/><rect y="5.921" x="6.421" height="8" width="1"/></g></svg>