<?xml version="1.0" encoding="utf-8"?>
<!DOCTYPE svg PUBLIC "-//W3C//DTD SVG 1.1//EN" "http://www.w3.org/Graphics/SVG/1.1/DTD/svg11.dtd">
<svg xmlns="http://www.w3.org/2000/svg" xmlns:xlink="http://www.w3.org/1999/xlink" viewBox="0 0 29.027 21.033" height="21.033px" xml:space="preserve" x="0px" y="0px" id="Capa_1" width="29.027px" version="1.1" enable-background="new 0 0 29.027 21.033">
  <path fill="#7C7C7D" d="M26.752,5.82h-7.286v6.354c0,0.571-0.463,1.034-1.035,1.034h-6.112v2.305c0,0.469,0.38,0.85,0.849,0.85  h8.054c-0.093,0.325-0.255,0.727-0.538,1.188c-0.741,1.204-1.528,1.813-1.423,2.026c0.098,0.203,2.011-0.4,3.381-1.697  c0.806-0.764,1.241-1.199,1.475-1.517h2.635c0.469,0,0.85-0.38,0.85-0.85V6.669C27.603,6.201,27.221,5.82,26.752,5.82" />
  <path fill="#7C7C7D" d="M17.839,1.504H2.274c-0.469,0-0.85,0.38-0.85,0.85v9.268c0,0.469,0.381,0.849,0.85,0.849h2.299  c0.189,0.386,0.68,1.23,1.734,2.236c1.208,1.154,3.052,1.894,3.205,1.718c0.185-0.213-0.588-0.843-1.326-2.047  c-0.568-0.922-0.652-1.611-0.658-1.907h10.311c0.469,0,0.848-0.381,0.848-0.85V2.354C18.688,1.884,18.308,1.504,17.839,1.504" />
</svg>