<svg xmlns="http://www.w3.org/2000/svg" xmlns:xlink="http://www.w3.org/1999/xlink" id="comments-dark-Capa_1" xml:space="preserve" height="21" viewBox="0 0 29.027 21.033" width="29" version="1.1" y="0px" x="0px" enable-background="new 0 0 29.027 21.033"><path d="m26.752 5.82h-7.286v6.354c0 0.571-0.463 1.034-1.035 1.034h-6.112v2.305c0 0.469 0.38 0.85 0.849 0.85h8.054c-0.093 0.325-0.255 0.727-0.538 1.188-0.741 1.204-1.528 1.813-1.423 2.026 0.098 0.203 2.011-0.4 3.381-1.697 0.806-0.764 1.241-1.199 1.475-1.517h2.635c0.469 0 0.85-0.38 0.85-0.85v-8.844c0.001-0.468-0.381-0.849-0.85-0.849" fill="#7C7C7D"/><path d="m17.839 1.504h-15.565c-0.469 0-0.85 0.38-0.85 0.85v9.268c0 0.469 0.381 0.849 0.85 0.849h2.299c0.189 0.386 0.68 1.23 1.734 2.236 1.208 1.154 3.052 1.894 3.205 1.718 0.185-0.213-0.588-0.843-1.326-2.047-0.568-0.922-0.652-1.611-0.658-1.907h10.311c0.469 0 0.848-0.381 0.848-0.85v-9.267c0.001-0.47-0.379-0.85-0.848-0.85" fill="#7C7C7D"/></svg>