<svg xmlns="http://www.w3.org/2000/svg" xmlns:xlink="http://www.w3.org/1999/xlink" id="dialog-Capa_1" xml:space="preserve" height="36" viewBox="0 0 44.844 35.83" width="45" version="1.1" y="0px" x="0px" enable-background="new 0 0 44.844 35.83"><path d="m34.422 13.413c0 6.633-7.383 12-16.5 12-1.429 0-2.812-0.141-4.125-0.375-1.945 1.383-4.148 2.391-6.515 3-0.633 0.164-1.313 0.281-2.016 0.375h-0.07c-0.352 0-0.68-0.281-0.75-0.68-0.094-0.445 0.211-0.726 0.468-1.031 0.914-1.031 1.946-1.945 2.743-3.891-3.797-2.203-6.235-5.601-6.235-9.398 0-6.633 7.383-12 16.5-12s16.5 5.367 16.5 12m-30 0c0 2.578 1.735 5.062 4.735 6.797l2.273 1.312-0.82 1.969c0.492-0.281 0.984-0.586 1.453-0.914l1.031-0.727 1.242 0.235c1.172 0.211 2.367 0.328 3.586 0.328 7.313 0 13.5-4.125 13.5-9s-6.187-9-13.5-9c-7.312 0-13.5 4.125-13.5 9m35.508 19.289c0.258 0.305 0.562 0.586 0.469 1.031-0.094 0.422-0.446 0.727-0.821 0.68-0.703-0.094-1.382-0.211-2.015-0.375-2.367-0.609-4.57-1.617-6.516-3-1.312 0.234-2.695 0.375-4.125 0.375-4.242 0-8.133-1.172-11.062-3.094 0.679 0.047 1.383 0.094 2.062 0.094 5.039 0 9.797-1.453 13.43-4.078 3.914-2.86 6.07-6.727 6.07-10.922 0-1.219-0.187-2.414-0.539-3.563 3.961 2.18 6.539 5.649 6.539 9.563 0 3.82-2.437 7.195-6.234 9.398 0.797 1.945 1.828 2.859 2.742 3.891" fill="#0D9B9B"/></svg>