<?xml version="1.0" encoding="utf-8"?>
<!DOCTYPE svg PUBLIC "-//W3C//DTD SVG 1.1//EN" "http://www.w3.org/Graphics/SVG/1.1/DTD/svg11.dtd">
<svg xmlns="http://www.w3.org/2000/svg" xmlns:xlink="http://www.w3.org/1999/xlink" viewBox="0 0 14.141 14.05" height="14.05px" xml:space="preserve" x="0px" y="0px" id="Capa_1" width="14.141px" version="1.1" enable-background="new 0 0 14.141 14.05">
  <g>
    <path fill="#618E96" d="M11.177,0.651c-0.552-0.184-1.055-0.155-1.358,0.118C9.795,0.79,9.772,0.808,9.75,0.83L1.684,8.894   C1.576,9.001,1.502,9.126,1.464,9.251l1.093,0.02L11.177,0.651z" />
    <path fill="#618E96" d="M12.534,1.483c-0.169-0.157-0.346-0.295-0.522-0.415L3.235,9.843l-0.028,1.064l1.806-0.002l-0.017,1.662   c0.072-0.041,0.144-0.09,0.207-0.154l8.066-8.066c0.035-0.035,0.064-0.072,0.094-0.11c0.015-0.014,0.032-0.026,0.047-0.042   C13.933,3.629,13.541,2.417,12.534,1.483z" />
    <path fill="#618E96" d="M1.003,11.199l-0.504,2.316l2.282-0.455C2.424,11.613,1.003,11.199,1.003,11.199z" />
  </g>
</svg>