<?xml version="1.0" encoding="utf-8"?>
<!DOCTYPE svg PUBLIC "-//W3C//DTD SVG 1.1//EN" "http://www.w3.org/Graphics/SVG/1.1/DTD/svg11.dtd">
<svg xmlns="http://www.w3.org/2000/svg" xmlns:xlink="http://www.w3.org/1999/xlink" viewBox="0 0 14.14 14.05" height="14.05px" xml:space="preserve" x="0px" y="0px" id="Capa_1" width="14.14px" version="1.1" enable-background="new 0 0 14.14 14.05">
  <g>
    <path fill="#333333" d="M11.177,0.688c-0.552-0.184-1.055-0.155-1.359,0.118c-0.023,0.02-0.046,0.038-0.068,0.06L1.684,8.931   C1.576,9.039,1.502,9.164,1.464,9.288l1.092,0.02L11.177,0.688z" />
    <path fill="#333333" d="M12.534,1.52c-0.169-0.157-0.346-0.295-0.523-0.415L3.235,9.881l-0.028,1.063l1.805-0.001l-0.016,1.662   c0.072-0.041,0.143-0.091,0.207-0.155l8.066-8.066c0.035-0.035,0.065-0.072,0.094-0.11c0.015-0.014,0.032-0.026,0.047-0.042   C13.933,3.666,13.541,2.453,12.534,1.52z" />
    <path fill="#333333" d="M1.003,11.236l-0.504,2.316l2.282-0.455C2.424,11.65,1.003,11.236,1.003,11.236z" />
  </g>
</svg>