<svg xmlns="http://www.w3.org/2000/svg" xmlns:xlink="http://www.w3.org/1999/xlink" id="edit~hover-Capa_1" xml:space="preserve" height="14" viewBox="0 0 14.141 14.05" width="14" version="1.1" y="0px" x="0px" enable-background="new 0 0 14.141 14.05"><g fill="#618E96">	<path d="m11.177 0.651c-0.552-0.184-1.055-0.155-1.358 0.118-0.024 0.021-0.047 0.039-0.069 0.061l-8.066 8.064c-0.108 0.107-0.182 0.232-0.22 0.357l1.093 0.02 8.62-8.62z"/>	<path d="m12.534 1.483c-0.169-0.157-0.346-0.295-0.522-0.415l-8.777 8.775-0.028 1.064 1.806-0.002-0.017 1.662c0.072-0.041 0.144-0.09 0.207-0.154l8.066-8.066c0.035-0.035 0.064-0.072 0.094-0.11 0.015-0.014 0.032-0.026 0.047-0.042 0.523-0.566 0.131-1.778-0.876-2.712z"/>	<path d="m1.003 11.199l-0.504 2.316 2.282-0.455c-0.357-1.447-1.778-1.861-1.778-1.861z"/></g></svg>