<svg xmlns="http://www.w3.org/2000/svg" xmlns:xlink="http://www.w3.org/1999/xlink" id="engine-dark-Capa_1" xml:space="preserve" height="24" viewBox="0 0 23.726 23.697" width="24" version="1.1" y="0px" x="0px" enable-background="new 0 0 23.726 23.697"><path d="m22.304 13.132v-2.608l-3.118-1.3c-0.087-0.245-0.179-0.481-0.291-0.714l1.259-3.134-1.845-1.844-3.106 1.279c-0.238-0.115-0.479-0.211-0.728-0.301l-1.323-3.098h-2.609l-1.291 3.088c-0.258 0.092-0.508 0.189-0.755 0.306l-3.101-1.246-1.844 1.845 1.264 3.073c-0.122 0.252-0.222 0.509-0.317 0.774l-3.067 1.312v2.609l3.07 1.279c0.095 0.265 0.197 0.522 0.319 0.774l-1.242 3.094 1.846 1.844 3.08-1.269c0.247 0.117 0.499 0.211 0.759 0.301l1.32 3.087h2.609l1.292-3.104c0.247-0.092 0.491-0.188 0.726-0.301l3.129 1.254 1.844-1.845-1.284-3.113c0.109-0.234 0.199-0.472 0.286-0.714l3.118-1.328zm-10.456 2.63c-2.161 0-3.914-1.753-3.914-3.914 0-2.16 1.753-3.913 3.914-3.913 2.16 0 3.913 1.753 3.913 3.913 0 2.161-1.753 3.914-3.913 3.914" fill="#676767"/></svg>