<svg xmlns="http://www.w3.org/2000/svg" xmlns:xlink="http://www.w3.org/1999/xlink" id="follow-Capa_1" xml:space="preserve" height="14" viewBox="0 0 23.87 13.65" width="24" version="1.1" y="0px" x="0px" enable-background="new 0 0 23.87 13.65"><g fill="#333">	<path d="m0.37 6.825l0.13 0.196c2.533 3.839 6.783 6.131 11.368 6.131 4.586 0 8.837-2.292 11.371-6.129l0.13-0.198-0.13-0.199c-2.536-3.837-6.787-6.128-11.371-6.128-4.585 0-8.835 2.292-11.368 6.128l-0.13 0.199zm13.845 4.956c0.546-0.265 1.052-0.619 1.496-1.061 1.045-1.043 1.621-2.433 1.621-3.91 0-1.476-0.576-2.864-1.621-3.909-0.418-0.417-0.894-0.757-1.407-1.017 3.07 0.61 5.81 2.351 7.678 4.939-1.887 2.615-4.661 4.365-7.767 4.958zm-4.817-2.545c-0.645-0.646-1-1.502-1-2.414s0.355-1.768 1-2.414c0.646-0.644 1.503-0.999 2.414-0.999 0.912 0 1.77 0.354 2.414 0.999 0.643 0.646 0.998 1.502 0.998 2.414 0 1.881-1.53 3.413-3.412 3.413-0.911 0-1.768-0.356-2.414-0.999zm-7.641-2.411c1.826-2.532 4.485-4.257 7.474-4.902-1.754 0.926-2.957 2.768-2.957 4.888 0 1.477 0.577 2.866 1.62 3.91 0.42 0.419 0.894 0.759 1.41 1.02-3.02-0.635-5.706-2.365-7.547-4.916z"/>	<path d="m12.996 7.014c0.623 0 1.127-0.504 1.127-1.127s-0.504-1.128-1.127-1.128-1.128 0.505-1.128 1.128 0.505 1.127 1.128 1.127"/></g></svg>