<?xml version="1.0" encoding="utf-8"?>
<!DOCTYPE svg PUBLIC "-//W3C//DTD SVG 1.1//EN" "http://www.w3.org/Graphics/SVG/1.1/DTD/svg11.dtd">
<svg xmlns="http://www.w3.org/2000/svg" xmlns:xlink="http://www.w3.org/1999/xlink" viewBox="0 0 23.871 13.65" height="13.65px" xml:space="preserve" x="0px" y="0px" id="Capa_1" width="23.871px" version="1.1" enable-background="new 0 0 23.871 13.65">
  <g>
    <path fill="#618E96" d="M0.37,6.825L0.5,7.021c2.533,3.839,6.783,6.131,11.368,6.131c4.586,0,8.836-2.292,11.371-6.129l0.13-0.198   l-0.13-0.199c-2.536-3.837-6.786-6.128-11.371-6.128C7.283,0.498,3.033,2.79,0.5,6.626L0.37,6.825z M14.214,11.781   c0.547-0.265,1.053-0.619,1.496-1.061c1.045-1.043,1.621-2.434,1.621-3.91s-0.576-2.864-1.621-3.909   c-0.418-0.417-0.894-0.757-1.406-1.018c3.07,0.61,5.81,2.352,7.678,4.939C20.095,9.438,17.321,11.188,14.214,11.781z M9.398,9.236   c-0.645-0.646-1-1.502-1-2.414s0.355-1.768,1-2.414c0.646-0.644,1.503-0.999,2.414-0.999c0.912,0,1.77,0.354,2.414,0.999   c0.643,0.646,0.998,1.502,0.998,2.414c0,1.881-1.53,3.413-3.412,3.413C10.901,10.235,10.044,9.879,9.398,9.236z M1.757,6.825   c1.826-2.532,4.485-4.257,7.474-4.902C7.477,2.849,6.274,4.691,6.274,6.811c0,1.477,0.577,2.866,1.62,3.91   c0.42,0.419,0.894,0.759,1.41,1.02C6.284,11.106,3.598,9.376,1.757,6.825z" />
    <path fill="#618E96" d="M12.996,7.014c0.623,0,1.127-0.504,1.127-1.127s-0.504-1.129-1.127-1.129c-0.623,0-1.127,0.506-1.127,1.129   S12.373,7.014,12.996,7.014" />
  </g>
</svg>