<?xml version="1.0" encoding="utf-8"?>
<!DOCTYPE svg PUBLIC "-//W3C//DTD SVG 1.1//EN" "http://www.w3.org/Graphics/SVG/1.1/DTD/svg11.dtd">
<svg xmlns="http://www.w3.org/2000/svg" xmlns:xlink="http://www.w3.org/1999/xlink" viewBox="0 0 41.935 32.089" height="32.089px" xml:space="preserve" x="0px" y="0px" id="Capa_1" width="41.935px" version="1.1" enable-background="new 0 0 41.935 32.089">
  <g>
    <path fill="#BFBFBF" d="M8.433,22.151c-0.701,0-0.003-1.098,0-1.592C8.444,21.068,9.131,22.151,8.433,22.151z" />
    <g id="XMLID_1_">
      <g>
        <path fill="#CFCFCF" d="M25.659,9.856c3.498,0,4.387,2.473,4.387,4.384c0,2.604-1.311,4.493-4.572,4.981     c-0.402,0.059-0.832,0.098-1.291,0.115c-1.971,0.071-3.938,0.064-5.56,0c-0.235-0.01-0.466-0.024-0.693-0.045     c-3.404-0.296-5.821-1.835-5.821-5.283c0-1.305,0.883-4.153,4.444-4.153c0.354,0,2.657,0.216,4.879,0.216     C23.409,10.072,25.405,9.856,25.659,9.856z" />
        <path d="M25.985,28.725c0.014,1.058,1.563,1.562,1.508,1.905c-0.061,0.338-1.299,0.282-1.877,0.083     c-1.639-0.573-1.477-1.939-1.477-1.939l-0.055-3.743c0,0,0.113-2.017-0.631-2.017c0,0.404,0,4.68,0,6.129     c0,1.334,0.932,1.739,0.932,2.23c0,0.846-1.703-0.08-2.229-0.609c-0.799-0.803-0.709-2.506-0.689-3.852     c0.02-1.305-0.012-4.15-0.012-4.15l-0.545,0.009c0,0,0.223,6.22-0.285,7.353c-0.658,1.453-2.646,1.954-2.646,1.291     c0-0.443,0.489-0.301,0.76-1.301c0.231-0.849,0.152-7.188,0.152-7.188s-0.636,0.377-0.636,1.563c0,0.543-0.015,3.647-0.015,4.57     c0,1.161-1.651,1.824-2.445,1.824c-0.4,0-0.9-0.02-0.9-0.234c0-0.536,1.509-0.852,1.509-1.969c0-0.969-0.021-3.463-0.021-3.463     s-0.762,0.131-1.848,0.131c-2.733,0-3.6-1.748-4.012-2.725c-0.536-1.273-1.23-1.869-1.97-2.348     c-0.453-0.293-0.558-0.639-0.033-0.738c2.422-0.455,3.042,2.745,4.658,3.257c1.154,0.365,2.641,0.207,3.378-0.271     c0.097-0.978,0.804-1.826,1.391-2.271c-0.038-0.004-0.076-0.008-0.113-0.012l0.096-0.951c0.227,0.021,0.458,0.035,0.692,0.044     c1.621,0.065,3.59,0.073,5.559,0c0.461-0.017,0.891-0.056,1.293-0.114l0.123,0.861c-0.406,0.062-0.83,0.112-1.271,0.158     c1.311,0.823,1.686,1.86,1.686,4.661S25.977,28.08,25.985,28.725z" />
        <path d="M9.583,14.886c-0.396-1.165-0.572-2.5-0.572-3.991c0-2.646,0.826-3.647,1.933-5.059     c-0.846-3.017,0.304-5.078,0.304-5.078s1.781-0.371,5.146,2.042c1.824-0.784,6.689-0.85,8.99-0.176     c1.412-0.932,3.996-2.259,5.039-1.885c0.281,0.454,0.889,1.779,0.369,4.689c0.354,0.638,2.195,1.998,2.201,5.843     c-0.031,1.417-0.18,2.613-0.451,3.624c4.389-0.037,6.969,0.325,8.746,0.652c0.072,0.015,0.119,0.084,0.105,0.151     c-0.01,0.064-0.066,0.108-0.127,0.108c-0.006,0-0.016,0-0.021,0c-1.779-0.331-4.363-0.693-8.779-0.651     c-0.076,0.256-0.164,0.501-0.256,0.733c1.502,0.052,5.627,0.212,8.992,1.243c0.07,0.019,0.107,0.09,0.086,0.162     c-0.016,0.054-0.068,0.091-0.123,0.091c-0.014,0-0.027-0.002-0.039-0.007c-3.41-1.043-7.625-1.186-9.027-1.231     c-1.09,2.388-3.193,3.443-6.498,3.939l-0.125-0.861c3.262-0.488,4.572-2.376,4.572-4.981c0-1.912-0.889-4.384-4.387-4.384     c-0.254,0-2.25,0.216-4.227,0.216c-2.223,0-4.525-0.216-4.879-0.216c-3.561,0-4.443,2.847-4.443,4.153     c0,3.449,2.417,4.986,5.82,5.284l-0.095,0.95c-4.045-0.408-6.453-1.831-7.705-4.107c-4.303,0.104-6.745,0.715-8.536,1.164     c-0.13,0.031-0.256,0.063-0.38,0.093c-0.009,0.002-0.021,0.005-0.031,0.005c-0.059,0-0.112-0.04-0.127-0.098     c-0.019-0.072,0.025-0.145,0.096-0.16c0.123-0.032,0.249-0.063,0.379-0.096c1.786-0.446,4.212-1.052,8.464-1.166     c-0.116-0.235-0.223-0.479-0.318-0.73c-1.655-0.014-6.749,0.223-8.494,0.654c-0.01,0.003-0.02,0.003-0.031,0.003     c-0.058,0-0.112-0.04-0.126-0.101c-0.016-0.069,0.026-0.139,0.095-0.156C2.849,15.122,7.823,14.882,9.583,14.886z" />
      </g>
    </g>
    <path fill="#FFFFFF" d="M18.104,14.22c0-1.53-0.833-2.771-1.861-2.771c-1.027,0-1.86,1.241-1.86,2.771c0,1.531,0.833,2.6,1.86,2.6   C17.27,16.82,18.104,15.751,18.104,14.22z" />
    <path fill="#FFFFFF" d="M28.157,14.22c0-1.53-0.834-2.771-1.861-2.771s-1.861,1.241-1.861,2.771c0,1.531,0.834,2.6,1.861,2.6   S28.157,15.751,28.157,14.22z" />
    <g>
      <path fill="#626262" d="M21.137,18.483c-0.666,0-1.152-0.571-1.152-0.869c0-0.071,0.059-0.13,0.131-0.13    c0.07,0,0.129,0.058,0.129,0.13c0,0.148,0.371,0.608,0.893,0.608c0.449,0,0.787-0.321,0.787-0.608c0-0.071,0.059-0.13,0.129-0.13    c0.074,0,0.133,0.058,0.133,0.13C22.184,18.026,21.754,18.483,21.137,18.483z" />
    </g>
    <circle fill="#626262" cx="21.122" cy="16.536" r="0.449" />
    <ellipse rx="1.223" fill="#626262" cx="16.242" ry="1.794" cy="14.219" />
    <ellipse rx="1.223" fill="#626262" cx="26.295" ry="1.794" cy="14.219" />
    <ellipse rx="0.293" fill="#DEDEDE" cx="9.315" ry="0.194" cy="19.869" />
    <ellipse rx="0.292" fill="#DEDEDE" cx="10.228" ry="0.195" cy="20.364" />
    <ellipse rx="0.293" fill="#DEDEDE" cx="10.785" ry="0.195" cy="21.027" />
    <ellipse rx="0.293" fill="#DEDEDE" cx="11.273" ry="0.195" cy="21.777" />
    <ellipse rx="0.293" fill="#DEDEDE" cx="11.831" ry="0.197" cy="22.483" />
    <ellipse rx="0.293" fill="#DEDEDE" cx="12.584" ry="0.195" cy="23.083" />
    <ellipse rx="0.292" fill="#DEDEDE" cx="13.638" ry="0.195" cy="23.473" />
    <ellipse rx="0.293" fill="#DEDEDE" cx="14.693" ry="0.195" cy="23.473" />
    <ellipse rx="0.292" fill="#DEDEDE" cx="15.754" ry="0.196" cy="23.307" />
  </g>
</svg>