<svg xmlns="http://www.w3.org/2000/svg" xmlns:xlink="http://www.w3.org/1999/xlink" id="hifi-black-Capa_1" xml:space="preserve" height="29" viewBox="0 0 28.833 28.674" width="29" version="1.1" y="0px" x="0px" enable-background="new 0 0 28.833 28.674">		<path d="m24.125 4.624c-2.598-2.596-6.045-4.025-9.715-4.025-3.669 0-7.119 1.429-9.714 4.024-2.595 2.594-4.024 6.044-4.024 9.714 0 3.669 1.429 7.119 4.024 9.715 2.595 2.594 6.044 4.023 9.714 4.023s7.12-1.43 9.713-4.023c2.596-2.596 4.022-6.045 4.022-9.715s-1.425-7.119-4.02-9.713zm-0.978 18.449c-2.333 2.334-5.436 3.619-8.737 3.619-3.3 0-6.403-1.285-8.737-3.619-2.333-2.332-3.619-5.436-3.619-8.736s1.286-6.403 3.619-8.736c2.334-2.333 5.437-3.619 8.737-3.619 3.301 0 6.404 1.285 8.737 3.619 2.334 2.333 3.619 5.437 3.619 8.737s-1.285 6.403-3.619 8.735z"/>			<path d="m10.731 19.224c-0.316 0-0.572-0.258-0.572-0.572v-10.624c0-0.316 0.256-0.572 0.572-0.572s0.572 0.255 0.572 0.572v10.624c0 0.314-0.256 0.572-0.572 0.572z"/>				<path d="m18.09 21.22c-0.317 0-0.573-0.257-0.573-0.572v-10.623c0-0.316 0.256-0.572 0.573-0.572 0.313 0 0.572 0.256 0.572 0.572v10.623c0.001 0.315-0.257 0.572-0.572 0.572z"/>					<rect y="13.571" x="10.352" height="1.146" transform="matrix(-.9065 -.4222 .4222 -.9065 21.502 33.051)" width="8.118"/><circle cy="9.046" cx="18.09" r="1.5"/><circle cy="21.608" cx="18.09" r="1.5"/><circle cy="19.612" cx="10.73" r="1.5"/><circle cy="7.067" cx="10.73" r="1.5"/></svg>