<?xml version="1.0" encoding="utf-8"?>
<!DOCTYPE svg PUBLIC "-//W3C//DTD SVG 1.1//EN" "http://www.w3.org/Graphics/SVG/1.1/DTD/svg11.dtd">
<svg xmlns="http://www.w3.org/2000/svg" xmlns:xlink="http://www.w3.org/1999/xlink" viewBox="0 0 28.833 28.674" height="28.674px" xml:space="preserve" x="0px" y="0px" id="Capa_1" width="28.833px" version="1.1" enable-background="new 0 0 28.833 28.674">
  <g>
    <g>
      <path d="M24.125,4.624c-2.598-2.596-6.045-4.025-9.715-4.025c-3.669,0-7.119,1.429-9.714,4.024    c-2.595,2.594-4.024,6.044-4.024,9.714c0,3.669,1.429,7.119,4.024,9.715c2.595,2.594,6.044,4.023,9.714,4.023    c3.67,0,7.12-1.43,9.713-4.023c2.596-2.596,4.022-6.045,4.022-9.715S26.72,7.218,24.125,4.624z M23.147,23.073    c-2.333,2.334-5.436,3.619-8.737,3.619c-3.3,0-6.403-1.285-8.737-3.619c-2.333-2.332-3.619-5.436-3.619-8.736    c0-3.3,1.286-6.403,3.619-8.736c2.334-2.333,5.437-3.619,8.737-3.619c3.301,0,6.404,1.285,8.737,3.619    c2.334,2.333,3.619,5.437,3.619,8.737S25.481,20.741,23.147,23.073z" />
      <g>
        <path d="M10.731,19.224c-0.316,0-0.572-0.258-0.572-0.572V8.028c0-0.316,0.256-0.572,0.572-0.572s0.572,0.255,0.572,0.572v10.624     C11.303,18.966,11.047,19.224,10.731,19.224z" />
        <g>
          <path d="M18.09,21.22c-0.317,0-0.573-0.257-0.573-0.572V10.025c0-0.316,0.256-0.572,0.573-0.572      c0.313,0,0.572,0.256,0.572,0.572v10.623C18.663,20.963,18.405,21.22,18.09,21.22z" />
        </g>
        <g>
          <rect height="1.146" transform="matrix(-0.9065 -0.4222 0.4222 -0.9065 21.5018 33.0512)" x="10.352" y="13.571" width="8.118" />
        </g>
      </g>
    </g>
  </g>
  <circle cx="18.09" cy="9.046" r="1.5" />
  <circle cx="18.09" cy="21.608" r="1.5" />
  <circle cx="10.73" cy="19.612" r="1.5" />
  <circle cx="10.73" cy="7.067" r="1.5" />
</svg>