<svg xmlns="http://www.w3.org/2000/svg" xmlns:xlink="http://www.w3.org/1999/xlink" id="invite-Capa_1" xml:space="preserve" height="14" viewBox="0 0 16.81 13.54" width="17" version="1.1" y="0px" x="0px" enable-background="new 0 0 16.81 13.54"><g fill="#333">	<path d="m4.892 4.466c0 0.409-0.332 0.741-0.741 0.741h-1.729c-0.409 0-0.742-0.333-0.742-0.741 0-0.409 0.333-0.741 0.742-0.741h1.729c0.41 0 0.741 0.332 0.741 0.741z"/>	<path d="m6.789 7.056c0 0.408-0.332 0.741-0.742 0.741h-1.729c-0.409 0-0.741-0.333-0.741-0.741 0-0.409 0.333-0.742 0.741-0.742h1.729c0.41 0 0.742 0.332 0.742 0.742z"/>	<path d="m8.566 9.645c0 0.408-0.332 0.741-0.742 0.741h-1.728c-0.409 0-0.742-0.333-0.742-0.741 0-0.409 0.333-0.742 0.742-0.742h1.729c0.409 0 0.741 0.333 0.741 0.742z"/>	<path d="m13.759 0.499h-10.769c-0.006 0-0.011-0.003-0.017-0.003h-1.729c-0.409 0-0.742 0.333-0.742 0.742 0 0.408 0.333 0.741 0.742 0.741h2.965l3.792 3.841c0.988 1.001 2.604 1.011 3.604 0.024l3.167-3.125c0.034 0.104 0.057 0.213 0.057 0.329v7.445c0 0.589-0.479 1.069-1.069 1.069h-4.479c-0.012-0.001-0.021-0.007-0.034-0.007h-1.729c-0.409 0-0.742 0.333-0.742 0.742 0 0.408 0.333 0.74 0.742 0.74h0.428v0.004h5.813c1.405 0 2.548-1.143 2.548-2.548v-7.446c0-1.405-1.143-2.548-2.548-2.548zm-3.193 4.292c-0.42 0.415-1.099 0.41-1.513-0.01l-2.766-2.803h7.129l-2.85 2.813z"/></g></svg>