<?xml version="1.0" encoding="utf-8"?>
<!DOCTYPE svg PUBLIC "-//W3C//DTD SVG 1.1//EN" "http://www.w3.org/Graphics/SVG/1.1/DTD/svg11.dtd"><svg xmlns="http://www.w3.org/2000/svg" xmlns:xlink="http://www.w3.org/1999/xlink" viewBox="0 0 16.81 13.54" height="13.54px" xml:space="preserve" x="0px" y="0px" id="Capa_1" width="16.81px" version="1.1" enable-background="new 0 0 16.81 13.54">
  <g>
    <path fill="#333333" d="M4.892,4.466c0,0.409-0.332,0.741-0.741,0.741H2.422c-0.409,0-0.742-0.333-0.742-0.741l0,0   c0-0.409,0.333-0.741,0.742-0.741h1.729C4.561,3.725,4.892,4.057,4.892,4.466L4.892,4.466z" />
    <path fill="#333333" d="M6.789,7.056c0,0.408-0.332,0.741-0.742,0.741H4.318c-0.409,0-0.741-0.333-0.741-0.741l0,0   c0-0.409,0.333-0.742,0.741-0.742h1.729C6.457,6.314,6.789,6.646,6.789,7.056L6.789,7.056z" />
    <path fill="#333333" d="M8.566,9.645c0,0.408-0.332,0.741-0.742,0.741H6.096c-0.409,0-0.742-0.333-0.742-0.741l0,0   c0-0.409,0.333-0.742,0.742-0.742h1.729C8.234,8.903,8.566,9.236,8.566,9.645L8.566,9.645z" />
    <path fill="#333333" d="M13.759,0.499H2.99c-0.006,0-0.011-0.003-0.017-0.003H1.244c-0.409,0-0.742,0.333-0.742,0.742   c0,0.408,0.333,0.741,0.742,0.741h1.68h0.049h1.236L8.001,5.82c0.988,1.001,2.604,1.011,3.604,0.024l3.167-3.125   c0.034,0.104,0.057,0.213,0.057,0.329v7.445c0,0.589-0.479,1.069-1.069,1.069H9.281c-0.012-0.001-0.021-0.007-0.034-0.007H7.518   c-0.409,0-0.742,0.333-0.742,0.742c0,0.408,0.333,0.74,0.742,0.74h0.428v0.004h5.813c1.405,0,2.548-1.143,2.548-2.548V3.047   C16.307,1.642,15.164,0.499,13.759,0.499z M10.566,4.791c-0.42,0.415-1.099,0.41-1.513-0.01L6.287,1.978h7.129L10.566,4.791z" />
  </g>
</svg>