<svg xmlns="http://www.w3.org/2000/svg" xmlns:xlink="http://www.w3.org/1999/xlink" id="no-dialog-Capa_1" xml:space="preserve" height="21" viewBox="0 0 29.027 21.061" width="29" version="1.1" y="0px" x="0px" enable-background="new 0 0 29.027 21.061"><path d="m26.752 5.848h-7.286v6.354c0 0.571-0.463 1.034-1.035 1.034h-6.112v2.305c0 0.469 0.38 0.85 0.849 0.85h8.054c-0.093 0.325-0.255 0.727-0.538 1.188-0.741 1.204-1.528 1.813-1.423 2.026 0.098 0.203 2.011-0.4 3.381-1.697 0.806-0.764 1.241-1.199 1.475-1.517h2.635c0.469 0 0.85-0.38 0.85-0.85v-8.844c0.001-0.468-0.381-0.849-0.85-0.849" fill="#C2C1C1"/><path d="m17.839 1.532h-15.565c-0.469 0-0.85 0.38-0.85 0.85v9.268c0 0.469 0.381 0.849 0.85 0.849h2.299c0.189 0.386 0.68 1.23 1.734 2.236 1.208 1.154 3.052 1.894 3.205 1.718 0.185-0.213-0.588-0.843-1.326-2.047-0.568-0.922-0.652-1.611-0.658-1.907h10.311c0.469 0 0.848-0.381 0.848-0.85v-9.267c0.001-0.47-0.379-0.85-0.848-0.85" fill="#C2C1C1"/><path d="m20.436 4.236c-1.582-1.582-3.685-2.453-5.922-2.453h-0.01c-2.236 0-4.336 0.871-5.916 2.453-1.581 1.581-2.45 3.683-2.449 5.916-0.001 2.239 0.869 4.343 2.45 5.926s3.684 2.454 5.92 2.454h0.001c2.238 0 4.342-0.87 5.925-2.453 1.581-1.582 2.453-3.688 2.453-5.925 0-2.236-0.871-4.338-2.452-5.918m-5.922-0.584c3.588 0 6.507 2.916 6.507 6.501 0 1.419-0.456 2.733-1.23 3.804l-9.079-9.085c1.098-0.793 2.412-1.222 3.792-1.222h0.01v0.002zm-4.604 11.106c-1.229-1.23-1.905-2.865-1.903-4.606-0.002-1.425 0.455-2.78 1.297-3.9l9.105 9.113c-1.088 0.815-2.438 1.301-3.899 1.301-1.739 0-3.372-0.678-4.6-1.908" fill="#676767"/></svg>