<svg xmlns="http://www.w3.org/2000/svg" xmlns:xlink="http://www.w3.org/1999/xlink" id="projects-Capa_1" xml:space="preserve" height="22" viewBox="0 0 26 22" width="26" version="1.1" y="0px" x="0px" enable-background="new 0 0 26 22">	<path d="m12 8c0 1.094-0.906 2-2 2h-8c-1.094 0-2-0.906-2-2v-6c0-1.094 0.906-2 2-2h8c1.094 0 2 0.906 2 2v6z" fill="#007F7C"/>	<path d="m12 20c0 1.094-0.906 2-2 2h-8c-1.094 0-2-0.906-2-2v-6c0-1.094 0.906-2 2-2h8c1.094 0 2 0.906 2 2v6z" fill="#009B9B"/>	<path d="m26 8c0 1.094-0.906 2-2 2h-8c-1.094 0-2-0.906-2-2v-6c0-1.094 0.906-2 2-2h8c1.094 0 2 0.906 2 2v6z" fill="#009B9B"/>	<path d="m26 20c0 1.094-0.906 2-2 2h-8c-1.094 0-2-0.906-2-2v-6c0-1.094 0.906-2 2-2h8c1.094 0 2 0.906 2 2v6z" fill="#007F7C"/></svg>