<svg xmlns="http://www.w3.org/2000/svg" xmlns:xlink="http://www.w3.org/1999/xlink" id="search-Capa_1" xml:space="preserve" height="18" viewBox="0 0 18.17 18.284" width="18" version="1.1" y="0px" x="0px" enable-background="new 0 0 18.17 18.284"><path d="m11.151 12.751c-1.312 0-2.601-0.454-3.661-1.338l-1.036 2.525-2.626 2.626c-0.278 0.203-0.581 0.303-0.909 0.303-0.833 0-1.515-0.732-1.515-1.54 0-0.328 0.101-0.656 0.303-0.909l2.601-2.626 2.55-1.035c-0.884-1.061-1.338-2.374-1.338-3.687 0-3.055 2.575-5.581 5.631-5.581 3.03 0 5.606 2.576 5.606 5.606 0 1.464-0.53 2.904-1.616 3.99-1.111 1.111-2.551 1.666-3.99 1.666m0-2.171c1.869 0 3.435-1.566 3.435-3.485 0-1.869-1.591-3.434-3.435-3.434-1.894 0-3.459 1.591-3.459 3.434 0 0.909 0.328 1.793 1.01 2.475 0.681 0.656 1.565 1.01 2.449 1.01" fill="#04807D"/></svg>