<?xml version="1.0" encoding="utf-8"?>
<!DOCTYPE svg PUBLIC "-//W3C//DTD SVG 1.1//EN" "http://www.w3.org/Graphics/SVG/1.1/DTD/svg11.dtd"><svg xmlns="http://www.w3.org/2000/svg" xmlns:xlink="http://www.w3.org/1999/xlink" viewBox="0 0 18.17 18.284" height="18.284px" xml:space="preserve" x="0px" y="0px" id="Capa_1" width="18.17px" version="1.1" enable-background="new 0 0 18.17 18.284">
  <path fill="#04807D" d="M11.151,12.751c-1.312,0-2.601-0.454-3.661-1.338l-1.036,2.525l-2.626,2.626  c-0.278,0.203-0.581,0.303-0.909,0.303c-0.833,0-1.515-0.732-1.515-1.54c0-0.328,0.101-0.656,0.303-0.909l2.601-2.626l2.55-1.035  C5.974,9.696,5.52,8.383,5.52,7.07c0-3.055,2.575-5.581,5.631-5.581c3.03,0,5.606,2.576,5.606,5.606c0,1.464-0.53,2.904-1.616,3.99  C14.03,12.196,12.59,12.751,11.151,12.751 M11.151,10.58c1.869,0,3.435-1.566,3.435-3.485c0-1.869-1.591-3.434-3.435-3.434  c-1.894,0-3.459,1.591-3.459,3.434c0,0.909,0.328,1.793,1.01,2.475C9.383,10.226,10.267,10.58,11.151,10.58" />
</svg>