<?xml version="1.0" encoding="utf-8"?>
<!-- Generator: Adobe Illustrator 18.0.0, SVG Export Plug-In . SVG Version: 6.00 Build 0)  -->
<!DOCTYPE svg PUBLIC "-//W3C//DTD SVG 1.1//EN" "http://www.w3.org/Graphics/SVG/1.1/DTD/svg11.dtd">
<svg version="1.1" id="Layer_1" xmlns="http://www.w3.org/2000/svg" xmlns:xlink="http://www.w3.org/1999/xlink" x="0px" y="0px"
	 viewBox="0 0 19.2 19.2" enable-background="new 0 0 19.2 19.2" xml:space="preserve">
<g>
	<path fill="#333333" d="M14.1,7c0,1.6-0.6,3.3-1.7,4.6l3.2,1.3l3.3,3.3c0.3,0.3,0.4,0.7,0.4,1.1c0,1-0.9,1.9-1.9,1.9
		c-0.4,0-0.8-0.1-1.1-0.4l-3.3-3.3l-1.3-3.2C10.3,13.5,8.6,14,7,14c-3.8,0-7-3.2-7-7c0-3.8,3.2-7,7-7c1.8,0,3.6,0.7,5,2
		C13.4,3.4,14.1,5.2,14.1,7z M11.4,7c0-2.3-2-4.3-4.4-4.3c-2.3,0-4.3,2-4.3,4.3c0,2.4,2,4.3,4.3,4.3c1.1,0,2.2-0.4,3.1-1.3
		C10.9,9.2,11.4,8.1,11.4,7z"/>
</g>
</svg>
