<?xml version="1.0" encoding="utf-8"?>
<!DOCTYPE svg PUBLIC "-//W3C//DTD SVG 1.1//EN" "http://www.w3.org/Graphics/SVG/1.1/DTD/svg11.dtd"><svg xmlns="http://www.w3.org/2000/svg" xmlns:xlink="http://www.w3.org/1999/xlink" viewBox="0 0 30.992 19.46" height="19.46px" xml:space="preserve" x="0px" y="0px" id="Capa_1" width="30.992px" version="1.1" enable-background="new 0 0 30.992 19.46">
  <g>
    <g>
      <path fill="#007F7C" d="M20.775,7.633c0,0-0.187,0.581-0.216,0.659C20.529,8.37,20.35,8.61,20.388,8.61s0.436,0.184,0.436,0.184    l1.541,0.479l-0.022,0.726c-0.135,0.02-0.667,0.372-0.745,0.547c-0.051,0.113-0.164,0.316-0.271,0.457    c1.403,0.566,2.225,1.395,2.258,2.323c0.023,0.165,0.875,3.205,0.924,3.889h6.484c0.006-0.028-0.195-3.96-0.197-3.99    c0,0-0.372-0.947-0.962-1.043c-0.59-0.097-1.348-0.303-1.666-0.542c-0.185-0.141-0.788-0.384-1.068-0.486    c-0.13-0.047-0.354-0.433-0.431-0.607c-0.077-0.175-0.61-0.526-0.746-0.546l-0.021-0.726l1.541-0.479c0,0,0.397-0.184,0.436-0.184    c0.039,0-0.184-0.292-0.212-0.37c-0.029-0.078-0.174-0.607-0.174-0.607s0.521,0.636,0.784,0.755c0,0-0.518-0.973-0.672-1.514    c-0.155-0.542-0.257-1.389-0.257-1.466c0-0.078-0.32-2.352-0.494-2.729c-0.174-0.378-0.41-0.891-0.814-1.142    s-1.004-0.61-1.865-0.658c-0.013,0-0.025,0-0.039-0.001C24.12,0.88,24.107,0.88,24.094,0.88c-0.861,0.048-1.46,0.407-1.865,0.658    s-0.641,0.764-0.815,1.142c-0.174,0.377-0.494,2.65-0.494,2.729c0,0.077-0.09,0.958-0.245,1.5c-0.155,0.542-0.684,1.48-0.684,1.48    C20.256,8.269,20.775,7.633,20.775,7.633z" />
    </g>
    <g>
      <path fill="#009B9B" d="M7.365,13.93v-0.039l0.004-0.039c0.419-1.812,2.602-2.677,3.793-3.197c0.001,0-0.002,0,0,0    c-0.724-0.331-1.105-0.577-1.284-0.617C9.806,9.892,9.649,8.786,9.649,8.786s0.869-0.769,1.064-2.24c0,0,0.428,0.237,0.455-0.658    c0.02-0.689,0.139-0.959-0.331-1.16c0,0,0.034-0.477,0.049-0.901c0.023-0.627,0.139-1.509-0.947-2.217    C9.785,1.509,8.989,1.065,8.983,1.067C8.7,0.895,8.339,0.786,8.339,0.786L8.35,1.044c-0.019-0.02-0.039-0.04-0.057-0.057    C8.222,0.914,8.181,0.628,8.188,0.515c0.014-0.201,0.014-0.201,0.014-0.201c-0.514,0.384-0.869,0.88-0.869,0.88l0.046-0.48    c0,0-0.095,0.147-1.272,0.882C4.951,2.318,5.142,3.382,5.174,4.012c0.021,0.423,0.063,0.716,0.063,0.716    C4.769,4.929,5.014,5.217,5.026,5.906C5.041,6.86,5.522,6.692,5.522,6.692c0.221,1.299,0.904,2.093,0.904,2.093    s-0.193,1.113-0.267,1.254c-0.213,0.048-0.704,0.387-1.735,0.816c-1.52,0.632-1.042,0.265-2.279,0.883    c-1.955,0.978-1.567,5.054-1.567,5.054h6.158L7.365,13.93z" />
    </g>
    <g>
      <path fill="#009B9B" d="M24.149,19.461c0-1.162-1.312-6.077-1.312-6.077c0-0.718-0.944-1.539-2.807-2.017    c-0.967-0.248-1.777-0.803-1.777-0.803c-0.12-0.068-0.102-0.696-0.102-0.696l-0.6-0.09c0-0.052-0.051-0.804-0.051-0.804    c0.717-0.239,0.644-1.651,0.644-1.651c0.455,0.25,0.752-0.866,0.752-0.866c0.539-1.553-0.269-1.459-0.269-1.459    c0.256-1.161,0-2.859,0-2.859c-0.359-3.145-5.762-2.291-5.122-1.263c-1.579-0.291-1.218,3.28-1.218,3.28l0.342,0.923    c-0.673,0.433-0.205,0.958-0.183,1.561c0.033,0.89,0.581,0.706,0.581,0.706c0.034,1.47,0.763,1.664,0.763,1.664    c0.137,0.923,0.052,0.766,0.052,0.766l-0.649,0.078c0.029,0.234-0.051,0.626-0.051,0.626c-0.766,0.338-0.929,0.536-1.687,0.866    c-1.466,0.638-3.06,1.468-3.343,2.586c-0.283,1.117-1.124,5.53-1.124,5.53L24.149,19.461L24.149,19.461z" />
    </g>
  </g>
</svg>