<svg xmlns="http://www.w3.org/2000/svg" xmlns:xlink="http://www.w3.org/1999/xlink" id="team-Capa_1" xml:space="preserve" height="19" viewBox="0 0 30.992 19.46" width="31" version="1.1" y="0px" x="0px" enable-background="new 0 0 30.992 19.46">		<path d="m20.775 7.633s-0.187 0.581-0.216 0.659c-0.03 0.078-0.209 0.318-0.171 0.318s0.436 0.184 0.436 0.184l1.541 0.479-0.022 0.726c-0.135 0.02-0.667 0.372-0.745 0.547-0.051 0.113-0.164 0.316-0.271 0.457 1.403 0.566 2.225 1.395 2.258 2.323 0.023 0.165 0.875 3.205 0.924 3.889h6.484c0.006-0.028-0.195-3.96-0.197-3.99 0 0-0.372-0.947-0.962-1.043-0.59-0.097-1.348-0.303-1.666-0.542-0.185-0.141-0.788-0.384-1.068-0.486-0.13-0.047-0.354-0.433-0.431-0.607-0.077-0.175-0.61-0.526-0.746-0.546l-0.021-0.726 1.541-0.479s0.397-0.184 0.436-0.184-0.184-0.292-0.212-0.37c-0.029-0.078-0.174-0.607-0.174-0.607s0.521 0.636 0.784 0.755-0.518-0.973-0.672-1.514c-0.155-0.542-0.257-1.389-0.257-1.466 0-0.078-0.32-2.352-0.494-2.729-0.174-0.378-0.41-0.891-0.814-1.142s-1.004-0.61-1.865-0.658c-0.013 0-0.025 0-0.039-0.001h-0.042c-0.861 0.048-1.46 0.407-1.865 0.658s-0.641 0.764-0.815 1.142c-0.174 0.377-0.494 2.65-0.494 2.729 0 0.077-0.09 0.958-0.245 1.5s-0.684 1.48-0.684 1.48c0.265-0.12 0.784-0.756 0.784-0.756z" fill="#007F7C"/>		<path d="m7.365 13.93v-0.039l0.004-0.039c0.419-1.812 2.602-2.677 3.793-3.197 0.001 0-0.002 0 0 0-0.724-0.331-1.105-0.577-1.284-0.617-0.072-0.146-0.229-1.252-0.229-1.252s0.869-0.769 1.064-2.24 0.428 0.237 0.455-0.658c0.02-0.689 0.139-0.959-0.331-1.16 0 0 0.034-0.477 0.049-0.901 0.023-0.627 0.139-1.509-0.947-2.217-0.154-0.101-0.95-0.545-0.956-0.543-0.283-0.172-0.644-0.281-0.644-0.281l0.011 0.258c-0.019-0.02-0.039-0.04-0.057-0.057-0.071-0.073-0.112-0.359-0.105-0.472l0.014-0.201c-0.514 0.384-0.869 0.88-0.869 0.88l0.046-0.48s-0.095 0.147-1.272 0.882c-1.156 0.722-0.965 1.786-0.933 2.416 0.021 0.423 0.063 0.716 0.063 0.716-0.468 0.201-0.223 0.489-0.211 1.178 0.015 0.954 0.496 0.786 0.496 0.786 0.221 1.299 0.904 2.093 0.904 2.093s-0.193 1.113-0.267 1.254c-0.213 0.048-0.704 0.387-1.735 0.816-1.52 0.632-1.042 0.265-2.279 0.883-1.955 0.978-1.567 5.054-1.567 5.054h6.158l0.629-2.862z" fill="#009B9B"/>		<path d="m24.149 19.461c0-1.162-1.312-6.077-1.312-6.077 0-0.718-0.944-1.539-2.807-2.017-0.967-0.248-1.777-0.803-1.777-0.803-0.12-0.068-0.102-0.696-0.102-0.696l-0.6-0.09c0-0.052-0.051-0.804-0.051-0.804 0.717-0.239 0.644-1.651 0.644-1.651 0.455 0.25 0.752-0.866 0.752-0.866 0.539-1.553-0.269-1.459-0.269-1.459 0.256-1.161 0-2.859 0-2.859-0.359-3.145-5.762-2.291-5.122-1.263-1.579-0.291-1.218 3.28-1.218 3.28l0.342 0.923c-0.673 0.433-0.205 0.958-0.183 1.561 0.033 0.89 0.581 0.706 0.581 0.706 0.034 1.47 0.763 1.664 0.763 1.664 0.137 0.923 0.052 0.766 0.052 0.766l-0.649 0.078c0.029 0.234-0.051 0.626-0.051 0.626-0.766 0.338-0.929 0.536-1.687 0.866-1.466 0.638-3.06 1.468-3.343 2.586-0.283 1.117-1.124 5.53-1.124 5.53l17.161-0.001z" fill="#009B9B"/></svg>