<?xml version="1.0"?>
<!--Icons from directory ""-->
<svg xmlns="http://www.w3.org/2000/svg" width="30" height="69" viewBox="0 0 30 69"><svg xmlns:xlink="http://www.w3.org/1999/xlink" id="arrow-down" xml:space="preserve" height="13" viewBox="0 0 19.587 13.181" width="20" version="1.1" y="0" x="0px" enable-background="new 0 0 19.587 13.181"><rect transform="matrix(.7073 -.7069 .7069 .7073 -2.7298 6.5866)" height="11.855" width="2.791" y=".662" x="5.193" fill="#676767"/><rect transform="matrix(.7071 .7071 -.7071 .7071 8.4669 -7.2608)" height="11.855" width="2.79" y=".663" x="11.603" fill="#676767"/></svg><svg xmlns:xlink="http://www.w3.org/1999/xlink" id="arrow-up" xml:space="preserve" height="18" viewBox="0 0 25.455 18.142" width="25" version="1.1" y="13" x="0px" enable-background="new 0 0 25.455 18.142"><polygon points="24.042 12.728 12.728 1.414 1.413 12.728" fill="#CDCCCC"/><polygon points="24.042 16.728 12.728 5.414 1.413 16.728" fill="#fff"/></svg><svg xmlns:xlink="http://www.w3.org/1999/xlink" id="attach-black" xml:space="preserve" height="23" viewBox="0 0 29.736 23.357" width="30" version="1.1" y="31" x="0px" enable-background="new 0 0 29.736 23.357"><path d="m21.022 21.113h-2.512c0.017-0.135 0.042-0.268 0.042-0.406v-2.057h2.47c2.72 0 4.923-2.204 4.923-4.923 0-2.718-2.203-4.922-4.923-4.922-0.757 0-1.47 0.176-2.109 0.484l-0.996-0.996c-1.142-2.595-3.722-4.412-6.74-4.412-4.079 0-7.385 3.305-7.385 7.383 0 4.077 3.3 7.38 7.375 7.386v2.058c0 0.14 0.025 0.271 0.04 0.406h-0.031c-5.44 0-9.847-4.41-9.847-9.849 0-5.437 4.407-9.846 9.847-9.846 3.696 0 6.91 2.039 8.595 5.049 0.409-0.07 0.822-0.126 1.251-0.126 4.078 0 7.384 3.307 7.384 7.386 0.001 4.077-3.305 7.385-7.384 7.385m-10.513-6.306c-0.482-0.479-0.482-1.26 0-1.738l3.48-3.483c0.48-0.481 1.26-0.481 1.739 0l3.482 3.483c0.482 0.478 0.482 1.259 0 1.738-0.481 0.48-1.261 0.48-1.74 0l-1.38-1.38v7.28c0 0.679-0.551 1.231-1.231 1.231-0.679 0-1.23-0.553-1.23-1.231v-7.28l-1.38 1.38c-0.482 0.481-1.26 0.481-1.74 0" fill="#010202"/></svg><svg xmlns:xlink="http://www.w3.org/1999/xlink" id="attach" xml:space="preserve" height="15" viewBox="0 0 19 14.64" width="19" version="1.1" y="54" x="0px" enable-background="new 0 0 19 14.64"><path d="m13.593 13.589h-1.669c0.011-0.09 0.027-0.178 0.027-0.27v-1.367h1.642c1.808 0 3.271-1.465 3.271-3.271s-1.464-3.271-3.271-3.271c-0.503 0-0.977 0.117-1.401 0.322l-0.663-0.662c-0.759-1.725-2.474-2.932-4.479-2.932-2.711 0-4.908 2.196-4.908 4.906 0 2.709 2.193 4.904 4.901 4.908v1.367c0 0.093 0.017 0.18 0.026 0.27h-0.021c-3.615 0-6.544-2.93-6.544-6.545 0-3.613 2.929-6.543 6.544-6.543 2.456 0 4.592 1.355 5.712 3.355 0.271-0.047 0.546-0.084 0.831-0.084 2.71 0 4.907 2.197 4.907 4.908 0.003 2.711-2.194 4.909-4.905 4.909zm-6.987-4.19c-0.32-0.318-0.32-0.837 0-1.155l2.313-2.314c0.319-0.319 0.838-0.319 1.156 0l2.313 2.314c0.32 0.318 0.32 0.837 0 1.155-0.319 0.319-0.838 0.319-1.156 0l-0.917-0.917v4.838c0 0.451-0.366 0.818-0.818 0.818-0.451 0-0.817-0.367-0.817-0.818v-4.838l-0.917 0.917c-0.321 0.319-0.837 0.319-1.157 0z" fill="#fff"/></svg></svg>
