<?xml version="1.0"?>
<!--Icons from directory ""-->
<svg xmlns="http://www.w3.org/2000/svg" width="221" height="4855" viewBox="0 0 221 4855"><svg xmlns:xlink="http://www.w3.org/1999/xlink" id="arrow-down" xml:space="preserve" height="113" viewBox="-50 -50 119.587 113.181" width="120" version="1.1" y="0" x="0px" enable-background="new 0 0 19.587 13.181"><rect transform="matrix(.7073 -.7069 .7069 .7073 -2.7298 6.5866)" height="11.855" width="2.791" y=".662" x="5.193" fill="#676767"/><rect transform="matrix(.7071 .7071 -.7071 .7071 8.4669 -7.2608)" height="11.855" width="2.79" y=".663" x="11.603" fill="#676767"/></svg><svg xmlns:xlink="http://www.w3.org/1999/xlink" id="arrow-up" xml:space="preserve" height="118" viewBox="-50 -50 125.455 118.142" width="125" version="1.1" y="113" x="0px" enable-background="new 0 0 25.455 18.142"><polygon points="24.042 12.728 12.728 1.414 1.413 12.728" fill="#CDCCCC"/><polygon points="24.042 16.728 12.728 5.414 1.413 16.728" fill="#fff"/></svg><svg xmlns:xlink="http://www.w3.org/1999/xlink" id="attach-black" xml:space="preserve" height="123" viewBox="-50 -50 129.736 123.357" width="130" version="1.1" y="231" x="0px" enable-background="new 0 0 29.736 23.357"><path d="m21.022 21.113h-2.512c0.017-0.135 0.042-0.268 0.042-0.406v-2.057h2.47c2.72 0 4.923-2.204 4.923-4.923 0-2.718-2.203-4.922-4.923-4.922-0.757 0-1.47 0.176-2.109 0.484l-0.996-0.996c-1.142-2.595-3.722-4.412-6.74-4.412-4.079 0-7.385 3.305-7.385 7.383 0 4.077 3.3 7.38 7.375 7.386v2.058c0 0.14 0.025 0.271 0.04 0.406h-0.031c-5.44 0-9.847-4.41-9.847-9.849 0-5.437 4.407-9.846 9.847-9.846 3.696 0 6.91 2.039 8.595 5.049 0.409-0.07 0.822-0.126 1.251-0.126 4.078 0 7.384 3.307 7.384 7.386 0.001 4.077-3.305 7.385-7.384 7.385m-10.513-6.306c-0.482-0.479-0.482-1.26 0-1.738l3.48-3.483c0.48-0.481 1.26-0.481 1.739 0l3.482 3.483c0.482 0.478 0.482 1.259 0 1.738-0.481 0.48-1.261 0.48-1.74 0l-1.38-1.38v7.28c0 0.679-0.551 1.231-1.231 1.231-0.679 0-1.23-0.553-1.23-1.231v-7.28l-1.38 1.38c-0.482 0.481-1.26 0.481-1.74 0" fill="#010202"/></svg><svg xmlns:xlink="http://www.w3.org/1999/xlink" id="attach" xml:space="preserve" height="115" viewBox="-50 -50 119 114.64" width="119" version="1.1" y="354" x="0px" enable-background="new 0 0 19 14.64"><path d="m13.593 13.589h-1.669c0.011-0.09 0.027-0.178 0.027-0.27v-1.367h1.642c1.808 0 3.271-1.465 3.271-3.271s-1.464-3.271-3.271-3.271c-0.503 0-0.977 0.117-1.401 0.322l-0.663-0.662c-0.759-1.725-2.474-2.932-4.479-2.932-2.711 0-4.908 2.196-4.908 4.906 0 2.709 2.193 4.904 4.901 4.908v1.367c0 0.093 0.017 0.18 0.026 0.27h-0.021c-3.615 0-6.544-2.93-6.544-6.545 0-3.613 2.929-6.543 6.544-6.543 2.456 0 4.592 1.355 5.712 3.355 0.271-0.047 0.546-0.084 0.831-0.084 2.71 0 4.907 2.197 4.907 4.908 0.003 2.711-2.194 4.909-4.905 4.909zm-6.987-4.19c-0.32-0.318-0.32-0.837 0-1.155l2.313-2.314c0.319-0.319 0.838-0.319 1.156 0l2.313 2.314c0.32 0.318 0.32 0.837 0 1.155-0.319 0.319-0.838 0.319-1.156 0l-0.917-0.917v4.838c0 0.451-0.366 0.818-0.818 0.818-0.451 0-0.817-0.367-0.817-0.818v-4.838l-0.917 0.917c-0.321 0.319-0.837 0.319-1.157 0z" fill="#fff"/></svg><svg xmlns:xlink="http://www.w3.org/1999/xlink" id="bar" xml:space="preserve" height="107" viewBox="-50 -50 220.841 106.831" width="221" version="1.1" y="469" x="0px" enable-background="new 0 0 120.841 6.831"><rect y="1.416" x="1.42" height="4" width="118" fill="#E8E5DD"/></svg><svg xmlns:xlink="http://www.w3.org/1999/xlink" id="chat" xml:space="preserve" height="120" viewBox="-50 -50 119.843 119.843" width="120" version="1.1" y="576" x="0px" enable-background="new 0 0 19.843 19.843"><path d="m18.421 9.921c0 4.694-3.806 8.5-8.5 8.5s-8.5-3.806-8.5-8.5c0-4.694 3.806-8.5 8.5-8.5s8.5 3.807 8.5 8.5" fill="#7F8080"/><path d="m17.421 9.921c0 4.143-3.357 7.5-7.5 7.5s-7.5-3.357-7.5-7.5c0-4.143 3.357-7.5 7.5-7.5s7.5 3.358 7.5 7.5" fill="#343434"/><g fill="#7F8080"><rect y="5.921" x="12.421" height="8" width="1"/><rect y="4.921" x="8.421" height="10" width="1"/><rect y="4.921" x="10.421" height="10" width="1"/><rect y="5.921" x="6.421" height="8" width="1"/></g></svg><svg xmlns:xlink="http://www.w3.org/1999/xlink" id="clear" xml:space="preserve" height="118" viewBox="-50 -50 118.34 118.34" width="118" version="1.1" y="696" x="0px" enable-background="new 0 0 18.34 18.34"><polygon points="12.2 9.17 16.92 13.89 13.888 16.92 9.169 12.201 4.451 16.92 1.42 13.888 6.138 9.17 1.42 4.452 4.451 1.421 9.169 6.139 13.888 1.42 16.92 4.451" fill="#888989"/></svg><svg xmlns:xlink="http://www.w3.org/1999/xlink" id="comments-dark" xml:space="preserve" height="121" viewBox="-50 -50 129.027 121.033" width="129" version="1.1" y="814" x="0px" enable-background="new 0 0 29.027 21.033"><path d="m26.752 5.82h-7.286v6.354c0 0.571-0.463 1.034-1.035 1.034h-6.112v2.305c0 0.469 0.38 0.85 0.849 0.85h8.054c-0.093 0.325-0.255 0.727-0.538 1.188-0.741 1.204-1.528 1.813-1.423 2.026 0.098 0.203 2.011-0.4 3.381-1.697 0.806-0.764 1.241-1.199 1.475-1.517h2.635c0.469 0 0.85-0.38 0.85-0.85v-8.844c0.001-0.468-0.381-0.849-0.85-0.849" fill="#7C7C7D"/><path d="m17.839 1.504h-15.565c-0.469 0-0.85 0.38-0.85 0.85v9.268c0 0.469 0.381 0.849 0.85 0.849h2.299c0.189 0.386 0.68 1.23 1.734 2.236 1.208 1.154 3.052 1.894 3.205 1.718 0.185-0.213-0.588-0.843-1.326-2.047-0.568-0.922-0.652-1.611-0.658-1.907h10.311c0.469 0 0.848-0.381 0.848-0.85v-9.267c0.001-0.47-0.379-0.85-0.848-0.85" fill="#7C7C7D"/></svg><svg xmlns:xlink="http://www.w3.org/1999/xlink" id="comments" xml:space="preserve" height="114" viewBox="-50 -50 119.389 114.4" width="119" version="1.1" y="935" x="0px" enable-background="new 0 0 19.389 14.4"><path d="m17.431 4.266h-4.605v4.016c0 0.361-0.293 0.653-0.655 0.653h-3.862v1.457c0 0.297 0.239 0.537 0.536 0.537h5.09c-0.058 0.205-0.161 0.46-0.34 0.751-0.468 0.761-0.965 1.146-0.899 1.28 0.062 0.129 1.271-0.252 2.137-1.072 0.51-0.483 0.785-0.758 0.933-0.958h1.665c0.296 0 0.537-0.241 0.537-0.538v-5.589c0-0.297-0.241-0.537-0.537-0.537" fill="#9A9999"/><path d="m11.797 1.537h-9.839c-0.297 0-0.537 0.241-0.537 0.537v5.858c0 0.297 0.24 0.537 0.537 0.537h1.453c0.119 0.244 0.431 0.778 1.096 1.413 0.765 0.731 1.93 1.198 2.026 1.087 0.117-0.135-0.371-0.534-0.838-1.295-0.358-0.582-0.412-1.018-0.416-1.205h6.518c0.297 0 0.536-0.24 0.536-0.537v-5.858c0-0.296-0.239-0.537-0.536-0.537" fill="#9A9999"/></svg><svg xmlns:xlink="http://www.w3.org/1999/xlink" id="dialog" xml:space="preserve" height="136" viewBox="-50 -50 144.844 135.83" width="145" version="1.1" y="1049" x="0px" enable-background="new 0 0 44.844 35.83"><path d="m34.422 13.413c0 6.633-7.383 12-16.5 12-1.429 0-2.812-0.141-4.125-0.375-1.945 1.383-4.148 2.391-6.515 3-0.633 0.164-1.313 0.281-2.016 0.375h-0.07c-0.352 0-0.68-0.281-0.75-0.68-0.094-0.445 0.211-0.726 0.468-1.031 0.914-1.031 1.946-1.945 2.743-3.891-3.797-2.203-6.235-5.601-6.235-9.398 0-6.633 7.383-12 16.5-12s16.5 5.367 16.5 12m-30 0c0 2.578 1.735 5.062 4.735 6.797l2.273 1.312-0.82 1.969c0.492-0.281 0.984-0.586 1.453-0.914l1.031-0.727 1.242 0.235c1.172 0.211 2.367 0.328 3.586 0.328 7.313 0 13.5-4.125 13.5-9s-6.187-9-13.5-9c-7.312 0-13.5 4.125-13.5 9m35.508 19.289c0.258 0.305 0.562 0.586 0.469 1.031-0.094 0.422-0.446 0.727-0.821 0.68-0.703-0.094-1.382-0.211-2.015-0.375-2.367-0.609-4.57-1.617-6.516-3-1.312 0.234-2.695 0.375-4.125 0.375-4.242 0-8.133-1.172-11.062-3.094 0.679 0.047 1.383 0.094 2.062 0.094 5.039 0 9.797-1.453 13.43-4.078 3.914-2.86 6.07-6.727 6.07-10.922 0-1.219-0.187-2.414-0.539-3.563 3.961 2.18 6.539 5.649 6.539 9.563 0 3.82-2.437 7.195-6.234 9.398 0.797 1.945 1.828 2.859 2.742 3.891" fill="#0D9B9B"/></svg><svg xmlns:xlink="http://www.w3.org/1999/xlink" id="document-color" xml:space="preserve" height="141" viewBox="-50 -50 131.861 140.536" width="132" version="1.1" y="1185" x="0px" enable-background="new 0 0 31.861 40.536"><path d="m19.866 1.424h-18.451v37.688h29.032v-26.705l-10.581-10.983zm0.497 4.917l4.98 5.173h-4.98v-5.173zm-15.893 29.718v-31.579h13.601v9.324h9.321v22.256l-22.922-0.001z" fill="#618E96"/></svg><svg xmlns:xlink="http://www.w3.org/1999/xlink" id="document" xml:space="preserve" height="139" viewBox="-50 -50 130.03 138.69" width="130" version="1.1" y="1326" x="0px" enable-background="new 0 0 30.03 38.69"><path d="m18.951 0.501h-18.451v37.688h29.031v-26.705l-10.58-10.983zm0.496 4.917l4.98 5.173h-4.98v-5.173zm-15.893 29.718v-31.578h13.601v9.324h9.321v22.255l-22.922-0.001z"/></svg><svg xmlns:xlink="http://www.w3.org/1999/xlink" id="dollar-gray" xml:space="preserve" height="126" viewBox="-50 -50 118.652 126.192" width="119" version="1.1" y="1465" x="0px" enable-background="new 0 0 18.652 26.192"><path d="m10.479 11.041c-0.083-0.018-0.146-0.036-0.224-0.053v-2.828c1.307 0.211 2.689 0.783 3.978 1.69l2.514-3.549c-1.758-1.41-3.868-2.216-6.492-2.376v-2.483h-1.265v2.461c-4.173 0.11-6.723 2.503-6.723 5.79v0.054c0 3.69 2.92 4.794 6.723 5.671v2.979c-1.695-0.217-3.308-0.925-4.78-2.097l-2.797 3.34c2.013 1.803 4.706 2.793 7.577 2.968v2.143h1.265v-2.118c4.207-0.112 6.984-2.289 6.984-5.893v-0.054c0-3.391-2.59-4.738-6.76-5.645m-3.135-1.76v-0.054c0-0.614 0.547-1.108 1.646-1.154v2.587c-1.279-0.389-1.646-0.749-1.646-1.379m4.819 7.95c0 0.744-0.671 1.197-1.908 1.236v-2.724c1.49 0.433 1.908 0.823 1.908 1.436v0.052z" fill="#A9A9AA"/></svg><svg xmlns:xlink="http://www.w3.org/1999/xlink" id="dollar" xml:space="preserve" height="118" viewBox="-50 -50 112.25 117.57" width="112" version="1.1" y="1591" x="0px" enable-background="new 0 0 12.25 17.57">		<path d="m6.944 7.323c-0.058-0.012-0.103-0.025-0.159-0.037v-2.012c0.93 0.15 1.913 0.558 2.83 1.202l1.786-2.523c-1.249-1.003-2.75-1.576-4.616-1.689v-1.766h-0.899v1.749c-2.967 0.079-4.781 1.78-4.781 4.118v0.038c0 2.624 2.078 3.408 4.781 4.032v2.118c-1.205-0.153-2.353-0.657-3.398-1.49l-1.989 2.375c1.432 1.281 3.347 1.985 5.388 2.11v1.523h0.899v-1.506c2.992-0.079 4.967-1.627 4.967-4.19v-0.037c-0.001-2.411-1.843-3.37-4.809-4.015zm-2.228-1.252v-0.037c0-0.437 0.388-0.788 1.17-0.821v1.84c-0.909-0.277-1.17-0.533-1.17-0.982zm3.427 5.655c0 0.528-0.478 0.851-1.357 0.879v-1.938c1.061 0.309 1.357 0.585 1.357 1.021v0.038z" fill="#fff"/></svg><svg xmlns:xlink="http://www.w3.org/1999/xlink" id="edit-color" xml:space="preserve" height="116" viewBox="-50 -50 115.931 115.817" width="116" version="1.1" y="1709" x="0px" enable-background="new 0 0 15.931 15.817"><g fill="#618E96"><path d="m12.052 1.534c-0.552-0.183-1.055-0.154-1.359 0.118-0.023 0.02-0.047 0.038-0.069 0.06l-8.066 8.066c-0.108 0.108-0.181 0.233-0.219 0.358l1.092 0.019 8.621-8.621z"/><path d="m13.409 2.367c-0.169-0.157-0.346-0.295-0.523-0.415l-8.776 8.776-0.028 1.063 1.805-0.001-0.016 1.662c0.072-0.041 0.142-0.092 0.207-0.156l8.066-8.066c0.035-0.034 0.065-0.071 0.094-0.11 0.015-0.014 0.031-0.025 0.046-0.042 0.523-0.564 0.132-1.778-0.875-2.711"/><path d="m1.878 12.083l-0.504 2.316 2.281-0.455c-0.356-1.447-1.777-1.861-1.777-1.861"/></g></svg><svg xmlns:xlink="http://www.w3.org/1999/xlink" id="edit" xml:space="preserve" height="114" viewBox="-50 -50 114.14 114.05" width="114" version="1.1" y="1825" x="0px" enable-background="new 0 0 14.14 14.05"><g fill="#333">	<path d="m11.177 0.688c-0.552-0.184-1.055-0.155-1.359 0.118-0.023 0.02-0.046 0.038-0.068 0.06l-8.066 8.065c-0.108 0.108-0.182 0.233-0.22 0.357l1.092 0.02 8.621-8.62z"/>	<path d="m12.534 1.52c-0.169-0.157-0.346-0.295-0.523-0.415l-8.776 8.776-0.028 1.063 1.805-0.001-0.016 1.662c0.072-0.041 0.143-0.091 0.207-0.155l8.066-8.066c0.035-0.035 0.065-0.072 0.094-0.11 0.015-0.014 0.032-0.026 0.047-0.042 0.523-0.566 0.131-1.779-0.876-2.712z"/>	<path d="m1.003 11.236l-0.504 2.316 2.282-0.455c-0.357-1.447-1.778-1.861-1.778-1.861z"/></g></svg><svg xmlns:xlink="http://www.w3.org/1999/xlink" id="engine-black" xml:space="preserve" height="124" viewBox="-50 -50 123.726 123.697" width="124" version="1.1" y="1939" x="0px" enable-background="new 0 0 23.726 23.697"><path d="m22.299 13.132v-2.608l-3.118-1.3c-0.087-0.245-0.179-0.481-0.291-0.714l1.259-3.134-1.845-1.844-3.106 1.279c-0.238-0.115-0.479-0.211-0.728-0.301l-1.323-3.098h-2.609l-1.29 3.088c-0.259 0.092-0.509 0.189-0.756 0.306l-3.101-1.246-1.844 1.845 1.264 3.073c-0.122 0.252-0.222 0.509-0.317 0.774l-3.067 1.312v2.609l3.07 1.279c0.095 0.265 0.197 0.522 0.319 0.774l-1.242 3.094 1.846 1.844 3.08-1.269c0.247 0.117 0.499 0.211 0.759 0.301l1.32 3.087h2.609l1.292-3.104c0.247-0.092 0.491-0.188 0.726-0.301l3.129 1.254 1.844-1.845-1.284-3.113c0.109-0.234 0.199-0.472 0.286-0.714l3.118-1.328zm-10.456 2.63c-2.161 0-3.914-1.753-3.914-3.914 0-2.16 1.753-3.913 3.914-3.913 2.16 0 3.913 1.753 3.913 3.913 0 2.161-1.753 3.914-3.913 3.914" fill="#010202"/></svg><svg xmlns:xlink="http://www.w3.org/1999/xlink" id="engine-dark" xml:space="preserve" height="124" viewBox="-50 -50 123.726 123.697" width="124" version="1.1" y="2063" x="0px" enable-background="new 0 0 23.726 23.697"><path d="m22.304 13.132v-2.608l-3.118-1.3c-0.087-0.245-0.179-0.481-0.291-0.714l1.259-3.134-1.845-1.844-3.106 1.279c-0.238-0.115-0.479-0.211-0.728-0.301l-1.323-3.098h-2.609l-1.291 3.088c-0.258 0.092-0.508 0.189-0.755 0.306l-3.101-1.246-1.844 1.845 1.264 3.073c-0.122 0.252-0.222 0.509-0.317 0.774l-3.067 1.312v2.609l3.07 1.279c0.095 0.265 0.197 0.522 0.319 0.774l-1.242 3.094 1.846 1.844 3.08-1.269c0.247 0.117 0.499 0.211 0.759 0.301l1.32 3.087h2.609l1.292-3.104c0.247-0.092 0.491-0.188 0.726-0.301l3.129 1.254 1.844-1.845-1.284-3.113c0.109-0.234 0.199-0.472 0.286-0.714l3.118-1.328zm-10.456 2.63c-2.161 0-3.914-1.753-3.914-3.914 0-2.16 1.753-3.913 3.914-3.913 2.16 0 3.913 1.753 3.913 3.913 0 2.161-1.753 3.914-3.913 3.914" fill="#676767"/></svg><svg xmlns:xlink="http://www.w3.org/1999/xlink" id="engine-light" xml:space="preserve" height="124" viewBox="-50 -50 123.697 123.697" width="124" version="1.1" y="2187" x="0px" enable-background="new 0 0 23.697 23.697"><path d="m22.285 13.132v-2.608l-3.118-1.3c-0.087-0.245-0.179-0.481-0.291-0.714l1.259-3.134-1.845-1.844-3.106 1.279c-0.238-0.115-0.479-0.211-0.728-0.301l-1.323-3.098h-2.609l-1.291 3.088c-0.258 0.092-0.508 0.189-0.755 0.306l-3.102-1.246-1.843 1.845 1.264 3.073c-0.122 0.252-0.222 0.509-0.318 0.774l-3.067 1.312v2.609l3.07 1.279c0.095 0.265 0.197 0.522 0.319 0.774l-1.241 3.094 1.846 1.844 3.08-1.269c0.247 0.117 0.499 0.211 0.759 0.301l1.32 3.087h2.609l1.292-3.104c0.247-0.092 0.491-0.188 0.726-0.301l3.129 1.254 1.844-1.845-1.284-3.113c0.109-0.234 0.199-0.472 0.286-0.714l3.118-1.328zm-10.456 2.63c-2.161 0-3.914-1.753-3.914-3.914 0-2.16 1.753-3.913 3.914-3.913 2.16 0 3.913 1.753 3.913 3.913 0 2.161-1.753 3.914-3.913 3.914" fill="#A9A9AA"/></svg><svg xmlns:xlink="http://www.w3.org/1999/xlink" id="exit" xml:space="preserve" height="126" viewBox="-50 -50 116.101 125.739" width="116" version="1.1" y="2311" x="0px" enable-background="new 0 0 16.101 25.739"><path d="m1.419 1.422v17.606h3.887v5.289l9.376-5.123v-17.772h-13.263zm3.887 5.235v11.685h-3.2v-16.005h11.513l-8.313 4.32z" fill="#A9A9AA"/></svg><svg xmlns:xlink="http://www.w3.org/1999/xlink" id="follow-color" xml:space="preserve" height="115" viewBox="-50 -50 125.823 115.449" width="126" version="1.1" y="2437" x="0px" enable-background="new 0 0 25.823 15.449"><path d="m1.412 7.714l0.13 0.197c2.533 3.84 6.783 6.131 11.368 6.131 4.587 0 8.838-2.291 11.371-6.129l0.131-0.199-0.131-0.198c-2.536-3.837-6.786-6.128-11.371-6.128s-8.835 2.291-11.368 6.128l-0.13 0.198zm13.845 4.957c0.546-0.266 1.052-0.619 1.496-1.061 1.045-1.043 1.621-2.434 1.621-3.91 0-1.475-0.576-2.864-1.621-3.908-0.418-0.417-0.893-0.758-1.407-1.017 3.071 0.61 5.81 2.351 7.678 4.939-1.887 2.614-4.661 4.364-7.767 4.957m-4.817-2.545c-0.644-0.646-0.999-1.502-0.999-2.414s0.355-1.769 0.999-2.414c0.646-0.645 1.503-0.999 2.414-0.999 0.912 0 1.769 0.354 2.414 0.999 0.642 0.645 0.998 1.502 0.998 2.414 0 1.881-1.53 3.412-3.412 3.412-0.911 0.001-1.768-0.354-2.414-0.998m-7.641-2.412c1.826-2.531 4.485-4.257 7.474-4.901-1.754 0.926-2.957 2.769-2.957 4.888 0 1.477 0.577 2.867 1.62 3.91 0.42 0.418 0.894 0.758 1.409 1.02-3.019-0.634-5.705-2.365-7.546-4.917" fill="#618E96"/><path d="m14.038 7.904c0.622 0 1.127-0.504 1.127-1.127 0-0.624-0.505-1.129-1.127-1.129-0.623 0-1.128 0.505-1.128 1.129 0 0.623 0.505 1.127 1.128 1.127" fill="#618E96"/></svg><svg xmlns:xlink="http://www.w3.org/1999/xlink" id="follow" xml:space="preserve" height="114" viewBox="-50 -50 123.87 113.65" width="124" version="1.1" y="2552" x="0px" enable-background="new 0 0 23.87 13.65"><g fill="#333">	<path d="m0.37 6.825l0.13 0.196c2.533 3.839 6.783 6.131 11.368 6.131 4.586 0 8.837-2.292 11.371-6.129l0.13-0.198-0.13-0.199c-2.536-3.837-6.787-6.128-11.371-6.128-4.585 0-8.835 2.292-11.368 6.128l-0.13 0.199zm13.845 4.956c0.546-0.265 1.052-0.619 1.496-1.061 1.045-1.043 1.621-2.433 1.621-3.91 0-1.476-0.576-2.864-1.621-3.909-0.418-0.417-0.894-0.757-1.407-1.017 3.07 0.61 5.81 2.351 7.678 4.939-1.887 2.615-4.661 4.365-7.767 4.958zm-4.817-2.545c-0.645-0.646-1-1.502-1-2.414s0.355-1.768 1-2.414c0.646-0.644 1.503-0.999 2.414-0.999 0.912 0 1.77 0.354 2.414 0.999 0.643 0.646 0.998 1.502 0.998 2.414 0 1.881-1.53 3.413-3.412 3.413-0.911 0-1.768-0.356-2.414-0.999zm-7.641-2.411c1.826-2.532 4.485-4.257 7.474-4.902-1.754 0.926-2.957 2.768-2.957 4.888 0 1.477 0.577 2.866 1.62 3.91 0.42 0.419 0.894 0.759 1.41 1.02-3.02-0.635-5.706-2.365-7.547-4.916z"/>	<path d="m12.996 7.014c0.623 0 1.127-0.504 1.127-1.127s-0.504-1.128-1.127-1.128-1.128 0.505-1.128 1.128 0.505 1.127 1.128 1.127"/></g></svg><svg xmlns:xlink="http://www.w3.org/1999/xlink" id="github" xml:space="preserve" height="129" viewBox="-50 -50 137.87 129.49" width="138" version="1.1" y="2666" x="0px" enable-background="new 0 0 37.87 29.49">	<path d="m7.213 20.214c-0.643 0-0.003-1.008 0-1.461 0.01 0.465 0.641 1.461 0 1.461z" fill="#BFBFBF"/>	<g id="github-XMLID_1_">			<path d="m23.025 8.927c3.21 0 4.026 2.271 4.026 4.025 0 2.39-1.203 4.124-4.197 4.571-0.368 0.055-0.762 0.091-1.185 0.106-1.808 0.066-3.614 0.059-5.103 0-0.216-0.008-0.428-0.021-0.636-0.04-3.125-0.272-5.343-1.685-5.343-4.85 0-1.198 0.811-3.813 4.079-3.813 0.325 0 2.438 0.199 4.479 0.199 1.813 0.001 3.645-0.198 3.88-0.198z" fill="#CFCFCF"/>			<path d="m23.324 26.247c0.013 0.971 1.435 1.434 1.382 1.749-0.053 0.31-1.19 0.26-1.721 0.076-1.505-0.525-1.354-1.779-1.354-1.779l-0.051-3.437s0.103-1.85-0.581-1.85v5.625c0 1.225 0.857 1.596 0.857 2.046 0 0.778-1.563-0.072-2.046-0.558-0.734-0.736-0.651-2.3-0.633-3.536 0.018-1.197-0.011-3.809-0.011-3.809l-0.499 0.009s0.204 5.708-0.262 6.748c-0.605 1.334-2.429 1.794-2.429 1.186 0-0.408 0.449-0.277 0.698-1.196 0.212-0.777 0.14-6.597 0.14-6.597s-0.584 0.345-0.584 1.435c0 0.498-0.013 3.349-0.013 4.195 0 1.066-1.516 1.674-2.244 1.674-0.368 0-0.827-0.018-0.827-0.215 0-0.493 1.385-0.782 1.385-1.807 0-0.89-0.019-3.179-0.019-3.179s-0.699 0.12-1.695 0.12c-2.51 0-3.305-1.604-3.683-2.5-0.492-1.169-1.129-1.716-1.808-2.155-0.416-0.27-0.512-0.586-0.03-0.678 2.223-0.418 2.792 2.521 4.276 2.989 1.059 0.336 2.424 0.19 3.1-0.248 0.089-0.897 0.738-1.675 1.276-2.084-0.034-0.003-0.069-0.006-0.103-0.01l0.088-0.873c0.208 0.019 0.42 0.032 0.636 0.04 1.488 0.059 3.295 0.067 5.103 0 0.422-0.015 0.817-0.051 1.185-0.106l0.113 0.791c-0.373 0.056-0.761 0.104-1.166 0.146 1.203 0.756 1.548 1.707 1.548 4.278s-0.036 2.918-0.028 3.51z"/>			<path d="m8.268 13.545c-0.364-1.07-0.525-2.295-0.525-3.663 0-2.429 0.758-3.348 1.774-4.644-0.777-2.77 0.279-4.661 0.279-4.661s1.634-0.341 4.724 1.874c1.674-0.72 6.139-0.78 8.252-0.162 1.295-0.856 3.667-2.073 4.625-1.731 0.258 0.417 0.816 1.633 0.338 4.304 0.325 0.586 2.014 1.834 2.021 5.363-0.028 1.3-0.164 2.399-0.414 3.326 4.028-0.033 6.397 0.3 8.029 0.6 0.065 0.013 0.108 0.076 0.096 0.14-0.009 0.057-0.061 0.098-0.117 0.098h-0.021c-1.631-0.304-4.003-0.636-8.056-0.597-0.071 0.234-0.15 0.46-0.237 0.673 1.379 0.046 5.167 0.194 8.255 1.14 0.065 0.018 0.099 0.083 0.08 0.15-0.015 0.048-0.063 0.083-0.113 0.083-0.013 0-0.025-0.002-0.036-0.007-3.131-0.956-7-1.088-8.288-1.129-0.999 2.191-2.93 3.16-5.965 3.615l-0.113-0.791c2.994-0.448 4.197-2.181 4.197-4.571 0-1.755-0.815-4.025-4.026-4.025-0.235 0-2.067 0.199-3.88 0.199-2.042 0-4.154-0.199-4.479-0.199-3.268 0-4.079 2.614-4.079 3.813 0 3.165 2.219 4.577 5.343 4.85l-0.088 0.873c-3.713-0.376-5.922-1.682-7.072-3.771-3.95 0.096-6.191 0.656-7.835 1.067-0.12 0.03-0.235 0.058-0.349 0.086-0.009 0.002-0.019 0.005-0.029 0.005-0.054 0-0.103-0.037-0.116-0.091-0.017-0.065 0.023-0.131 0.088-0.146 0.113-0.028 0.228-0.057 0.348-0.087 1.639-0.41 3.866-0.966 7.769-1.071-0.107-0.216-0.205-0.439-0.292-0.67-1.519-0.013-6.195 0.204-7.797 0.6-0.009 0.003-0.018 0.003-0.028 0.003-0.053 0-0.103-0.037-0.116-0.091-0.015-0.065 0.024-0.128 0.087-0.146 1.585-0.394 6.151-0.613 7.766-0.609z"/>	</g>	<path d="m16.089 12.933c0-1.405-0.765-2.544-1.708-2.544s-1.707 1.139-1.707 2.544 0.764 2.386 1.707 2.386 1.708-0.981 1.708-2.386z" fill="#fff"/>	<path d="m25.317 12.933c0-1.405-0.765-2.544-1.708-2.544s-1.708 1.139-1.708 2.544 0.765 2.386 1.708 2.386 1.708-0.981 1.708-2.386z" fill="#fff"/>		<path d="m18.873 16.846c-0.61 0-1.057-0.524-1.057-0.797 0-0.066 0.054-0.12 0.12-0.12s0.119 0.053 0.119 0.12c0 0.135 0.34 0.558 0.818 0.558 0.414 0 0.724-0.295 0.724-0.558 0-0.066 0.054-0.12 0.12-0.12s0.12 0.053 0.12 0.12c-0.002 0.377-0.397 0.797-0.964 0.797z" fill="#626262"/>	<g fill="#626262">	<circle cy="15.059" cx="18.859" r=".412"/>	<ellipse cy="12.933" cx="14.381" rx="1.123" ry="1.647"/>	<ellipse cy="12.933" cx="23.609" rx="1.123" ry="1.647"/></g><g fill="#DEDEDE">	<ellipse cy="18.118" cx="8.023" rx=".269" ry=".179"/>	<ellipse cy="18.573" cx="8.86" rx=".269" ry=".18"/>	<ellipse cy="19.182" cx="9.372" rx=".269" ry=".179"/>	<ellipse cy="19.869" cx="9.82" rx=".269" ry=".179"/>	<ellipse cy="20.517" cx="10.332" rx=".269" ry=".18"/>	<ellipse cy="21.068" cx="11.023" rx=".269" ry=".179"/>	<ellipse cy="21.427" cx="11.99" rx=".269" ry=".179"/>	<ellipse cy="21.427" cx="12.959" rx=".269" ry=".179"/>	<ellipse cy="21.274" cx="13.933" rx=".269" ry=".18"/></g></svg><svg xmlns:xlink="http://www.w3.org/1999/xlink" id="help" xml:space="preserve" height="124" viewBox="-50 -50 124 124" width="124" version="1.1" y="2795" x="0px" enable-background="new 0 0 24 24"><path d="m12 0c-6.627 0-12 5.373-12 12s5.373 12 12 12 12-5.373 12-12-5.373-12-12-12zm-0.187 20.321c-0.955 0-1.728-0.776-1.728-1.728 0-0.958 0.772-1.727 1.728-1.727s1.727 0.769 1.727 1.727c-0.001 0.952-0.772 1.728-1.727 1.728zm2.839-10.275l-3.136 3.106c-0.183 0.183-0.183 0.479 0 0.663 0.183 0.183 0.479-0.058 0.663-0.241 0.12-0.121 0.137 0.426 0.137-0.574h1.875c0 1-0.243 1.457-0.687 1.928-0.442 0.443-1.03 0.809-1.657 0.809-0.625 0-1.214-0.185-1.657-0.628-0.443-0.471-0.687-1.029-0.687-1.655s0.243-1.199 0.687-1.613l3.136-3.127c0.354-0.355 0.55-0.823 0.55-1.323 0-0.501-0.196-0.97-0.55-1.324-0.73-0.731-1.92-0.929-2.65-0.196-0.357 0.353-0.552 1.129-0.552 1.129h-1.875c0-1 0.392-1.748 1.101-2.456 1.416-1.418 3.885-1.318 5.303 0.1 0.709 0.707 1.099 1.698 1.099 2.702-0.001 1.001-0.391 1.992-1.1 2.7z" fill="#009B9B"/></svg><svg xmlns:xlink="http://www.w3.org/1999/xlink" id="hifi-black" xml:space="preserve" height="129" viewBox="-50 -50 128.833 128.674" width="129" version="1.1" y="2919" x="0px" enable-background="new 0 0 28.833 28.674">		<path stroke="#000" stroke-miterlimit="10" d="m24.125 4.624c-2.596-2.596-6.045-4.025-9.715-4.025-3.669 0-7.119 1.429-9.714 4.024-2.595 2.594-4.024 6.044-4.024 9.714 0 3.669 1.429 7.119 4.024 9.715 2.595 2.594 6.044 4.023 9.714 4.023s7.12-1.43 9.713-4.023c2.596-2.596 4.024-6.045 4.024-9.715s-1.427-7.119-4.022-9.713zm-0.978 18.449c-2.333 2.334-5.436 3.619-8.737 3.619-3.3 0-6.403-1.285-8.737-3.619-2.333-2.332-3.619-5.436-3.619-8.736s1.286-6.403 3.619-8.736c2.334-2.333 5.437-3.619 8.737-3.619 3.301 0 6.404 1.285 8.737 3.619 2.334 2.333 3.619 5.437 3.619 8.737s-1.285 6.403-3.619 8.735z"/>			<path stroke="#000" stroke-miterlimit="10" d="m10.731 19.224c-0.316 0-0.572-0.258-0.572-0.572v-10.624c0-0.316 0.256-0.572 0.572-0.572s0.572 0.255 0.572 0.572v10.624c0 0.314-0.256 0.572-0.572 0.572z"/>				<path stroke="#000" stroke-miterlimit="10" d="m18.09 21.22c-0.317 0-0.573-0.257-0.573-0.572v-10.623c0-0.316 0.256-0.572 0.573-0.572 0.314 0 0.572 0.256 0.572 0.572v10.623c0.001 0.315-0.257 0.572-0.572 0.572z"/>					<rect transform="matrix(-.9064 -.4224 .4224 -.9064 21.498 33.055)" height="1.146" width="8.119" stroke="#000" stroke-miterlimit="10" y="13.573" x="10.351"/><g stroke="#000" stroke-miterlimit="10"><circle cx="18.09" cy="9.046" r="2.062"/><circle cx="18.09" cy="21.608" r="2.062"/><circle cx="10.73" cy="19.612" r="2.062"/><circle cx="10.73" cy="7.067" r="2.062"/></g></svg><svg xmlns:xlink="http://www.w3.org/1999/xlink" id="hifi" xml:space="preserve" height="129" viewBox="-50 -50 128.833 128.674" width="129" version="1.1" y="3048" x="0px" enable-background="new 0 0 28.833 28.674">		<path stroke="#666" stroke-miterlimit="10" d="m24.125 4.624c-2.596-2.596-6.045-4.025-9.715-4.025-3.669 0-7.119 1.429-9.714 4.024-2.595 2.594-4.024 6.044-4.024 9.714 0 3.669 1.429 7.119 4.024 9.715 2.595 2.594 6.044 4.023 9.714 4.023s7.12-1.43 9.713-4.023c2.596-2.596 4.024-6.045 4.024-9.715s-1.427-7.119-4.022-9.713zm-0.978 18.449c-2.333 2.334-5.436 3.619-8.737 3.619-3.3 0-6.403-1.285-8.737-3.619-2.333-2.332-3.619-5.436-3.619-8.736s1.286-6.403 3.619-8.736c2.334-2.333 5.437-3.619 8.737-3.619 3.301 0 6.404 1.285 8.737 3.619 2.334 2.333 3.619 5.437 3.619 8.737s-1.285 6.403-3.619 8.735z" fill="#666"/>			<path stroke="#666" stroke-miterlimit="10" d="m10.731 19.224c-0.316 0-0.572-0.258-0.572-0.572v-10.624c0-0.316 0.256-0.572 0.572-0.572s0.572 0.255 0.572 0.572v10.624c0 0.314-0.256 0.572-0.572 0.572z" fill="#666"/>				<path stroke="#666" stroke-miterlimit="10" d="m18.09 21.22c-0.317 0-0.573-0.257-0.573-0.572v-10.623c0-0.316 0.256-0.572 0.573-0.572 0.314 0 0.572 0.256 0.572 0.572v10.623c0.001 0.315-0.257 0.572-0.572 0.572z" fill="#666"/>					<rect transform="matrix(-.9064 -.4224 .4224 -.9064 21.498 33.055)" height="1.146" width="8.119" stroke="#666" stroke-miterlimit="10" y="13.573" x="10.351" fill="#666"/><g stroke="#666" stroke-miterlimit="10" fill="#666"><circle cx="18.09" cy="9.046" r="2.062"/><circle cx="18.09" cy="21.608" r="2.062"/><circle cx="10.73" cy="19.612" r="2.062"/><circle cx="10.73" cy="7.067" r="2.062"/></g></svg><svg xmlns:xlink="http://www.w3.org/1999/xlink" id="hifi~hover" xml:space="preserve" height="129" viewBox="-50 -50 128.833 128.674" width="129" version="1.1" y="3177" x="0px" enable-background="new 0 0 28.833 28.674">		<path stroke="#fff" stroke-miterlimit="10" d="m24.125 4.624c-2.596-2.596-6.045-4.025-9.715-4.025-3.669 0-7.119 1.429-9.714 4.024-2.595 2.594-4.024 6.044-4.024 9.714 0 3.669 1.429 7.119 4.024 9.715 2.595 2.594 6.044 4.023 9.714 4.023s7.12-1.43 9.713-4.023c2.596-2.596 4.024-6.045 4.024-9.715s-1.427-7.119-4.022-9.713zm-0.978 18.449c-2.333 2.334-5.436 3.619-8.737 3.619-3.3 0-6.403-1.285-8.737-3.619-2.333-2.332-3.619-5.436-3.619-8.736s1.286-6.403 3.619-8.736c2.334-2.333 5.437-3.619 8.737-3.619 3.301 0 6.404 1.285 8.737 3.619 2.334 2.333 3.619 5.437 3.619 8.737s-1.285 6.403-3.619 8.735z" fill="#fff"/>			<path stroke="#fff" stroke-miterlimit="10" d="m10.731 19.224c-0.316 0-0.572-0.258-0.572-0.572v-10.624c0-0.316 0.256-0.572 0.572-0.572s0.572 0.255 0.572 0.572v10.624c0 0.314-0.256 0.572-0.572 0.572z" fill="#fff"/>				<path stroke="#fff" stroke-miterlimit="10" d="m18.09 21.22c-0.317 0-0.573-0.257-0.573-0.572v-10.623c0-0.316 0.256-0.572 0.573-0.572 0.314 0 0.572 0.256 0.572 0.572v10.623c0.001 0.315-0.257 0.572-0.572 0.572z" fill="#fff"/>					<rect transform="matrix(-.9064 -.4224 .4224 -.9064 21.498 33.055)" height="1.146" width="8.119" stroke="#fff" stroke-miterlimit="10" y="13.573" x="10.351" fill="#fff"/><g stroke="#fff" stroke-miterlimit="10" fill="#fff"><circle cx="18.09" cy="9.046" r="2.062"/><circle cx="18.09" cy="21.608" r="2.062"/><circle cx="10.73" cy="19.612" r="2.062"/><circle cx="10.73" cy="7.067" r="2.062"/></g></svg><svg xmlns:xlink="http://www.w3.org/1999/xlink" id="invite-color" xml:space="preserve" height="115" viewBox="-50 -50 118.737 115.335" width="119" version="1.1" y="3306" x="0px" enable-background="new 0 0 18.737 15.335"><g fill="#618E96"><path d="m5.904 5.381c0 0.409-0.331 0.741-0.741 0.741h-1.729c-0.409 0-0.742-0.332-0.742-0.741s0.333-0.741 0.742-0.741h1.729c0.41 0 0.741 0.332 0.741 0.741"/><path d="m7.801 7.971c0 0.408-0.332 0.741-0.742 0.741h-1.729c-0.408 0-0.741-0.333-0.741-0.741 0-0.409 0.333-0.741 0.741-0.741h1.729c0.41 0 0.742 0.332 0.742 0.741"/><path d="m9.579 10.56c0 0.408-0.332 0.741-0.742 0.741h-1.73c-0.409 0-0.741-0.333-0.741-0.741s0.332-0.741 0.741-0.741h1.729c0.411 0 0.743 0.333 0.743 0.741"/><path d="m14.771 1.415h-10.769c-0.007 0-0.011-0.003-0.017-0.003h-1.728c-0.41 0-0.742 0.332-0.742 0.741 0 0.408 0.332 0.741 0.742 0.741h2.965l3.791 3.842c0.988 1 2.604 1.011 3.604 0.024l3.167-3.125c0.034 0.104 0.057 0.213 0.057 0.328v7.445c0 0.59-0.48 1.07-1.069 1.07h-4.479c-0.011-0.001-0.021-0.007-0.034-0.007h-1.729c-0.409 0-0.742 0.333-0.742 0.742 0 0.408 0.333 0.74 0.742 0.74h0.428v0.004h5.814c1.405 0 2.548-1.143 2.548-2.549v-7.446c0-1.404-1.143-2.547-2.549-2.547m-3.192 4.292c-0.42 0.414-1.099 0.41-1.513-0.01l-2.767-2.803h7.13l-2.85 2.813z"/></g></svg><svg xmlns:xlink="http://www.w3.org/1999/xlink" id="invite" xml:space="preserve" height="114" viewBox="-50 -50 116.81 113.54" width="117" version="1.1" y="3421" x="0px" enable-background="new 0 0 16.81 13.54"><g fill="#333">	<path d="m4.892 4.466c0 0.409-0.332 0.741-0.741 0.741h-1.729c-0.409 0-0.742-0.333-0.742-0.741 0-0.409 0.333-0.741 0.742-0.741h1.729c0.41 0 0.741 0.332 0.741 0.741z"/>	<path d="m6.789 7.056c0 0.408-0.332 0.741-0.742 0.741h-1.729c-0.409 0-0.741-0.333-0.741-0.741 0-0.409 0.333-0.742 0.741-0.742h1.729c0.41 0 0.742 0.332 0.742 0.742z"/>	<path d="m8.566 9.645c0 0.408-0.332 0.741-0.742 0.741h-1.728c-0.409 0-0.742-0.333-0.742-0.741 0-0.409 0.333-0.742 0.742-0.742h1.729c0.409 0 0.741 0.333 0.741 0.742z"/>	<path d="m13.759 0.499h-10.769c-0.006 0-0.011-0.003-0.017-0.003h-1.729c-0.409 0-0.742 0.333-0.742 0.742 0 0.408 0.333 0.741 0.742 0.741h2.965l3.792 3.841c0.988 1.001 2.604 1.011 3.604 0.024l3.167-3.125c0.034 0.104 0.057 0.213 0.057 0.329v7.445c0 0.589-0.479 1.069-1.069 1.069h-4.479c-0.012-0.001-0.021-0.007-0.034-0.007h-1.729c-0.409 0-0.742 0.333-0.742 0.742 0 0.408 0.333 0.74 0.742 0.74h0.428v0.004h5.813c1.405 0 2.548-1.143 2.548-2.548v-7.446c0-1.405-1.143-2.548-2.548-2.548zm-3.193 4.292c-0.42 0.415-1.099 0.41-1.513-0.01l-2.766-2.803h7.129l-2.85 2.813z"/></g></svg><svg xmlns:xlink="http://www.w3.org/1999/xlink" id="jobs" xml:space="preserve" height="124" viewBox="-50 -50 124 124" width="124" version="1.1" y="3535" x="0px" enable-background="new 0 0 24 24"><path d="m12 0c-6.627 0-12 5.373-12 12s5.373 12 12 12 12-5.373 12-12-5.373-12-12-12zm-3.247 18.191l-3.543-7.087 2.236-1.118 1.911 3.823 7.864-8.65 1.85 1.682-10.318 11.35z" fill="#009B9B"/></svg><svg xmlns:xlink="http://www.w3.org/1999/xlink" id="no-dialog" xml:space="preserve" height="121" viewBox="-50 -50 129.027 121.061" width="129" version="1.1" y="3659" x="0px" enable-background="new 0 0 29.027 21.061"><path d="m26.752 5.848h-7.286v6.354c0 0.571-0.463 1.034-1.035 1.034h-6.112v2.305c0 0.469 0.38 0.85 0.849 0.85h8.054c-0.093 0.325-0.255 0.727-0.538 1.188-0.741 1.204-1.528 1.813-1.423 2.026 0.098 0.203 2.011-0.4 3.381-1.697 0.806-0.764 1.241-1.199 1.475-1.517h2.635c0.469 0 0.85-0.38 0.85-0.85v-8.844c0.001-0.468-0.381-0.849-0.85-0.849" fill="#C2C1C1"/><path d="m17.839 1.532h-15.565c-0.469 0-0.85 0.38-0.85 0.85v9.268c0 0.469 0.381 0.849 0.85 0.849h2.299c0.189 0.386 0.68 1.23 1.734 2.236 1.208 1.154 3.052 1.894 3.205 1.718 0.185-0.213-0.588-0.843-1.326-2.047-0.568-0.922-0.652-1.611-0.658-1.907h10.311c0.469 0 0.848-0.381 0.848-0.85v-9.267c0.001-0.47-0.379-0.85-0.848-0.85" fill="#C2C1C1"/><path d="m20.436 4.236c-1.582-1.582-3.685-2.453-5.922-2.453h-0.01c-2.236 0-4.336 0.871-5.916 2.453-1.581 1.581-2.45 3.683-2.449 5.916-0.001 2.239 0.869 4.343 2.45 5.926s3.684 2.454 5.92 2.454h0.001c2.238 0 4.342-0.87 5.925-2.453 1.581-1.582 2.453-3.688 2.453-5.925 0-2.236-0.871-4.338-2.452-5.918m-5.922-0.584c3.588 0 6.507 2.916 6.507 6.501 0 1.419-0.456 2.733-1.23 3.804l-9.079-9.085c1.098-0.793 2.412-1.222 3.792-1.222h0.01v0.002zm-4.604 11.106c-1.229-1.23-1.905-2.865-1.903-4.606-0.002-1.425 0.455-2.78 1.297-3.9l9.105 9.113c-1.088 0.815-2.438 1.301-3.899 1.301-1.739 0-3.372-0.678-4.6-1.908" fill="#676767"/></svg><svg xmlns:xlink="http://www.w3.org/1999/xlink" id="projects" xml:space="preserve" height="122" viewBox="-50 -50 126 122" width="126" version="1.1" y="3780" x="0px" enable-background="new 0 0 26 22">	<path d="m12 8c0 1.094-0.906 2-2 2h-8c-1.094 0-2-0.906-2-2v-6c0-1.094 0.906-2 2-2h8c1.094 0 2 0.906 2 2v6z" fill="#007F7C"/>	<path d="m12 20c0 1.094-0.906 2-2 2h-8c-1.094 0-2-0.906-2-2v-6c0-1.094 0.906-2 2-2h8c1.094 0 2 0.906 2 2v6z" fill="#009B9B"/>	<path d="m26 8c0 1.094-0.906 2-2 2h-8c-1.094 0-2-0.906-2-2v-6c0-1.094 0.906-2 2-2h8c1.094 0 2 0.906 2 2v6z" fill="#009B9B"/>	<path d="m26 20c0 1.094-0.906 2-2 2h-8c-1.094 0-2-0.906-2-2v-6c0-1.094 0.906-2 2-2h8c1.094 0 2 0.906 2 2v6z" fill="#007F7C"/></svg><svg xmlns:xlink="http://www.w3.org/1999/xlink" id="search" xml:space="preserve" height="118" viewBox="-50 -50 118.17 118.284" width="118" version="1.1" y="3902" x="0px" enable-background="new 0 0 18.17 18.284"><path d="m11.151 12.751c-1.312 0-2.601-0.454-3.661-1.338l-1.036 2.525-2.626 2.626c-0.278 0.203-0.581 0.303-0.909 0.303-0.833 0-1.515-0.732-1.515-1.54 0-0.328 0.101-0.656 0.303-0.909l2.601-2.626 2.55-1.035c-0.884-1.061-1.338-2.374-1.338-3.687 0-3.055 2.575-5.581 5.631-5.581 3.03 0 5.606 2.576 5.606 5.606 0 1.464-0.53 2.904-1.616 3.99-1.111 1.111-2.551 1.666-3.99 1.666m0-2.171c1.869 0 3.435-1.566 3.435-3.485 0-1.869-1.591-3.434-3.435-3.434-1.894 0-3.459 1.591-3.459 3.434 0 0.909 0.328 1.793 1.01 2.475 0.681 0.656 1.565 1.01 2.449 1.01" fill="#04807D"/></svg><svg xmlns:xlink="http://www.w3.org/1999/xlink" id="star" xml:space="preserve" height="113" viewBox="-50 -50 113.691 113.153" width="114" version="1.1" y="4020" x="0px" enable-background="new 0 0 13.691 13.153"><polygon points="6.846 1.419 8.521 4.814 12.269 5.358 9.558 8.002 10.198 11.733 6.846 9.973 3.494 11.733 4.134 8.002 1.423 5.358 5.17 4.814" fill="#343434"/></svg><svg xmlns:xlink="http://www.w3.org/1999/xlink" id="status" xml:space="preserve" height="124" viewBox="-50 -50 124 124" width="124" version="1.1" y="4133" x="0px" enable-background="new 0 0 24 24"><path d="m12 0c-6.627 0-12 5.373-12 12s5.373 12 12 12 12-5.373 12-12-5.373-12-12-12zm1.65 5l-0.446 10h-2.502l-0.469-10h3.417zm-1.697 15.12c-0.983 0-1.787-0.827-1.787-1.787 0-0.983 0.804-1.81 1.787-1.81s1.81 0.827 1.81 1.81c-0.001 0.96-0.827 1.787-1.81 1.787z" fill="#009B9B"/></svg><svg xmlns:xlink="http://www.w3.org/1999/xlink" id="t-dark" xml:space="preserve" height="120" viewBox="-50 -50 120.891 119.927" width="121" version="1.1" y="4257" x="0px" enable-background="new 0 0 20.891 19.927"><polygon points="4.824 18.517 1.366 7.95 10.419 1.41 19.472 7.931 16.013 18.517" fill="#343434"/><polygon points="13.899 5.517 16.05 12.444 10.419 16.687 4.788 12.367 6.939 5.517" fill="#fff"/><rect y="8.517" x="8.366" height="1" width="4" fill="#343434"/><rect y="8.517" x="9.366" height="4" width="2" fill="#343434"/></svg><svg xmlns:xlink="http://www.w3.org/1999/xlink" id="t-light" xml:space="preserve" height="120" viewBox="-50 -50 120.891 119.927" width="121" version="1.1" y="4377" x="0px" enable-background="new 0 0 20.891 19.927"><polygon points="4.825 18.517 1.367 7.95 10.42 1.41 19.472 7.931 16.014 18.517" fill="#9A9999"/><polygon points="13.899 5.517 16.05 12.444 10.419 16.687 4.789 12.367 6.939 5.517" fill="#fff"/><rect y="8.517" x="8.367" height="1" width="4" fill="#9A9999"/><rect y="8.517" x="9.367" height="4" width="2" fill="#9A9999"/></svg><svg xmlns:xlink="http://www.w3.org/1999/xlink" id="team" xml:space="preserve" height="119" viewBox="-50 -50 130.992 119.46" width="131" version="1.1" y="4497" x="0px" enable-background="new 0 0 30.992 19.46">		<path d="m20.775 7.633s-0.187 0.581-0.216 0.659c-0.03 0.078-0.209 0.318-0.171 0.318s0.436 0.184 0.436 0.184l1.541 0.479-0.022 0.726c-0.135 0.02-0.667 0.372-0.745 0.547-0.051 0.113-0.164 0.316-0.271 0.457 1.403 0.566 2.225 1.395 2.258 2.323 0.023 0.165 0.875 3.205 0.924 3.889h6.484c0.006-0.028-0.195-3.96-0.197-3.99 0 0-0.372-0.947-0.962-1.043-0.59-0.097-1.348-0.303-1.666-0.542-0.185-0.141-0.788-0.384-1.068-0.486-0.13-0.047-0.354-0.433-0.431-0.607-0.077-0.175-0.61-0.526-0.746-0.546l-0.021-0.726 1.541-0.479s0.397-0.184 0.436-0.184-0.184-0.292-0.212-0.37c-0.029-0.078-0.174-0.607-0.174-0.607s0.521 0.636 0.784 0.755-0.518-0.973-0.672-1.514c-0.155-0.542-0.257-1.389-0.257-1.466 0-0.078-0.32-2.352-0.494-2.729-0.174-0.378-0.41-0.891-0.814-1.142s-1.004-0.61-1.865-0.658c-0.013 0-0.025 0-0.039-0.001h-0.042c-0.861 0.048-1.46 0.407-1.865 0.658s-0.641 0.764-0.815 1.142c-0.174 0.377-0.494 2.65-0.494 2.729 0 0.077-0.09 0.958-0.245 1.5s-0.684 1.48-0.684 1.48c0.265-0.12 0.784-0.756 0.784-0.756z" fill="#007F7C"/>		<path d="m7.365 13.93v-0.039l0.004-0.039c0.419-1.812 2.602-2.677 3.793-3.197 0.001 0-0.002 0 0 0-0.724-0.331-1.105-0.577-1.284-0.617-0.072-0.146-0.229-1.252-0.229-1.252s0.869-0.769 1.064-2.24 0.428 0.237 0.455-0.658c0.02-0.689 0.139-0.959-0.331-1.16 0 0 0.034-0.477 0.049-0.901 0.023-0.627 0.139-1.509-0.947-2.217-0.154-0.101-0.95-0.545-0.956-0.543-0.283-0.172-0.644-0.281-0.644-0.281l0.011 0.258c-0.019-0.02-0.039-0.04-0.057-0.057-0.071-0.073-0.112-0.359-0.105-0.472l0.014-0.201c-0.514 0.384-0.869 0.88-0.869 0.88l0.046-0.48s-0.095 0.147-1.272 0.882c-1.156 0.722-0.965 1.786-0.933 2.416 0.021 0.423 0.063 0.716 0.063 0.716-0.468 0.201-0.223 0.489-0.211 1.178 0.015 0.954 0.496 0.786 0.496 0.786 0.221 1.299 0.904 2.093 0.904 2.093s-0.193 1.113-0.267 1.254c-0.213 0.048-0.704 0.387-1.735 0.816-1.52 0.632-1.042 0.265-2.279 0.883-1.955 0.978-1.567 5.054-1.567 5.054h6.158l0.629-2.862z" fill="#009B9B"/>		<path d="m24.149 19.461c0-1.162-1.312-6.077-1.312-6.077 0-0.718-0.944-1.539-2.807-2.017-0.967-0.248-1.777-0.803-1.777-0.803-0.12-0.068-0.102-0.696-0.102-0.696l-0.6-0.09c0-0.052-0.051-0.804-0.051-0.804 0.717-0.239 0.644-1.651 0.644-1.651 0.455 0.25 0.752-0.866 0.752-0.866 0.539-1.553-0.269-1.459-0.269-1.459 0.256-1.161 0-2.859 0-2.859-0.359-3.145-5.762-2.291-5.122-1.263-1.579-0.291-1.218 3.28-1.218 3.28l0.342 0.923c-0.673 0.433-0.205 0.958-0.183 1.561 0.033 0.89 0.581 0.706 0.581 0.706 0.034 1.47 0.763 1.664 0.763 1.664 0.137 0.923 0.052 0.766 0.052 0.766l-0.649 0.078c0.029 0.234-0.051 0.626-0.051 0.626-0.766 0.338-0.929 0.536-1.687 0.866-1.466 0.638-3.06 1.468-3.343 2.586-0.283 1.117-1.124 5.53-1.124 5.53l17.161-0.001z" fill="#009B9B"/></svg><svg xmlns:xlink="http://www.w3.org/1999/xlink" id="tweet" xml:space="preserve" height="113" viewBox="-50 -50 109.58 112.92" width="110" version="1.1" y="4616" x="0px" enable-background="new 0 0 9.58 12.92"><rect y="4.376" x="17.165" height="9.875" width="11.667" fill="none"/><g stroke="#333" stroke-miterlimit="10" fill="none">	<rect height="10.891" width="7.531" y="1.015" x="1.024"/>	<line y2="11.905" x2="8.556" y1="1.015" x1="1.024"/>	<line y2="11.905" x2="1.024" y1="1.015" x1="8.556"/></g></svg><svg xmlns:xlink="http://www.w3.org/1999/xlink" id="worklist" xml:space="preserve" height="126" viewBox="-50 -50 146.166 125.755" width="146" version="1.1" y="4729" x="0px" enable-background="new 0 0 46.166 25.755"><g fill="#fff">	<path d="m3.498 0l8.586 25.755h-3.549l-8.553-25.755h3.516z"/>	<path d="m12.016 0l8.588 25.755h-3.55l-8.555-25.755h3.517z"/>	<path d="m25.568 0h3.549l-8.591 25.755h-3.518l8.56-25.755z"/>	<path d="m29.055 0l8.585 25.755h-3.552l-8.551-25.755h3.518z"/>	<path d="m42.605 0h3.549l-8.589 25.755h-3.52l8.56-25.755z"/></g></svg></svg>
